<svg width="60" height="53" viewBox="0 0 60 53" fill="none" xmlns="http://www.w3.org/2000/svg">
<path d="M60 26.5C60 41.1355 46.5685 53 30 53C13.4315 53 0 41.1355 0 26.5C0 11.8645 13.4315 0 30 0C46.5685 0 60 11.8645 60 26.5Z" fill="#0052B5"/>
<path d="M22.5 14.575V0.834866C23.7216 0.557125 24.9734 0.345646 26.25 0.205023C27.4785 0.069706 28.73 0 30 0C31.27 0 32.5215 0.069706 33.75 0.205023C35.0266 0.345646 36.2784 0.557125 37.5 0.834866V18.2188L50.25 6.94761C51.6244 8.0589 53.6291 10.2755 54.75 11.5938L45 19.875H59.0549C59.3693 20.9541 59.6087 22.0598 59.7679 23.1875C59.9211 24.2727 60 25.3782 60 26.5C60 27.6218 59.9211 28.7274 59.7679 29.8125C59.6087 30.9402 59.3693 32.0459 59.0549 33.125H42.75L54.0022 42.4C52.3896 44.2965 50.4956 45.9956 48.375 47.449L37.5 37.7625V52.1651C36.2784 52.4429 35.0266 52.6544 33.75 52.795C32.5215 52.9303 31.27 53 30 53C28.73 53 27.4785 52.9303 26.25 52.795C24.9733 52.6544 23.7216 52.4429 22.5 52.1651L22.5 35.1125L10.125 46.3506C8.44672 45.0384 6.93606 43.5628 5.625 41.9519L16.5 33.125H0.945131C0.630709 32.0459 0.391299 30.9402 0.232103 29.8125C0.0789131 28.7274 0 27.6218 0 26.5C0 25.3782 0.0789125 24.2727 0.232102 23.1875C0.391297 22.0598 0.630708 20.9541 0.945131 19.875H16.875L6 10.5974C7.66448 8.64047 9.62857 6.8937 11.8321 5.41027L22.5 14.575Z" fill="white"/>
<path d="M22.5 19.875L8.80869 7.74235C8.08472 8.38054 7.39748 9.05123 6.75 9.75173L18.75 19.875H22.5Z" fill="#D90026"/>
<path d="M37.5 19.875L51.1913 7.74234C51.9153 8.38054 52.6025 9.05123 53.25 9.75173L41.25 19.875H37.5Z" fill="#D90026"/>
<path d="M37.5 33.3524L51.1913 45.4851C51.9153 44.8469 52.6025 44.1762 53.25 43.4757L41.25 33.3524H37.5Z" fill="#D90026"/>
<path d="M22.5 33.3524L8.80869 45.4851C8.08472 44.8469 7.39748 44.1762 6.75 43.4757L18.75 33.3524H22.5Z" fill="#D90026"/>
<path d="M0.232102 23.1875C0.0789125 24.2727 0 25.3782 0 26.5C0 27.6218 0.0789131 28.7274 0.232103 29.8125H26.25V52.795C27.4785 52.9303 28.73 53 30 53C31.27 53 32.5215 52.9303 33.75 52.795V29.8125H59.7679C59.9211 28.7274 60 27.6218 60 26.5C60 25.3782 59.9211 24.2727 59.7679 23.1875H33.75V0.205023C32.2821 0.0099815 31.5294 0 30 0C28.73 0 27.4785 0.069706 26.25 0.205023V23.1875H0.232102Z" fill="#D90026"/>
</svg>
