<svg style="display: none;" aria-hidden="true" xmlns="http://www.w3.org/2000/svg" xmlns:xlink="http://www.w3.org/1999/xlink"><symbol viewBox="0 0 92 92" fill="none" id="svg-Discord" xmlns="http://www.w3.org/2000/svg">
<path d="M62.4748 30.562C67.87 38.5435 70.5344 47.5464 69.5384 57.9108C69.5342 57.9547 69.5115 57.9949 69.4757 58.0214C65.39 61.04 61.4316 62.8719 57.5287 64.0868C57.4983 64.0961 57.4657 64.0956 57.4357 64.0853C57.4056 64.0751 57.3794 64.0556 57.3609 64.0297C56.4592 62.7674 55.6399 61.4365 54.9221 60.039C54.8809 59.9566 54.9186 59.8575 55.0033 59.8251C56.3045 59.3318 57.5418 58.7406 58.7319 58.0406C58.8256 57.9853 58.8316 57.8501 58.745 57.7852C58.4924 57.5966 58.2422 57.3983 58.0028 57.2C57.958 57.1634 57.8977 57.1562 57.8469 57.1808C50.1205 60.7708 41.6566 60.7708 33.8389 57.1808C33.7881 57.158 33.7278 57.1658 33.6842 57.2018C33.4454 57.4001 33.1946 57.5966 32.9444 57.7852C32.8578 57.8501 32.8649 57.9853 32.9593 58.0406C34.1494 58.7273 35.3867 59.3318 36.686 59.8275C36.7702 59.8599 36.8102 59.9566 36.7684 60.039C36.0662 61.4383 35.2469 62.7692 34.3285 64.0315C34.2885 64.0826 34.2228 64.106 34.1607 64.0868C30.2763 62.8719 26.3179 61.04 22.2322 58.0214C22.1982 57.9949 22.1737 57.9529 22.1701 57.909C21.3377 48.9439 23.0342 39.8665 29.2271 30.5602C29.2421 30.5355 29.2648 30.5163 29.291 30.5049C32.3383 29.0977 35.6028 28.0625 39.0149 27.4713C39.077 27.4617 39.1391 27.4905 39.1713 27.5458C39.5929 28.2968 40.0748 29.26 40.4009 30.0471C43.9974 29.4943 47.6502 29.4943 51.322 30.0471C51.648 29.2768 52.1132 28.2968 52.533 27.5458C52.5479 27.5184 52.5711 27.4964 52.5992 27.483C52.6273 27.4696 52.6589 27.4655 52.6894 27.4713C56.1033 28.0643 59.3679 29.0995 62.4127 30.5049C62.4395 30.5163 62.4616 30.5355 62.4748 30.562ZM42.2293 47.6077C42.2669 44.9574 40.3465 42.7643 37.9359 42.7643C35.5449 42.7643 33.643 44.9382 33.643 47.6077C33.643 50.2766 35.5825 52.4504 37.9359 52.4504C40.3274 52.4504 42.2293 50.2766 42.2293 47.6077ZM58.1025 47.6077C58.1401 44.9574 56.2197 42.7643 53.8097 42.7643C51.4181 42.7643 49.5162 44.9382 49.5162 47.6077C49.5162 50.2766 51.4557 52.4504 53.8097 52.4504C56.2197 52.4504 58.1025 50.2766 58.1025 47.6077Z" fill="#5865F2"/>
</symbol>

<symbol viewBox="0 0 92 92" fill="none" id="svg-Facebook" xmlns="http://www.w3.org/2000/svg">
<path d="M56.4946 48.6408L57.7992 40.3593H49.763V34.9764C49.763 32.7119 50.885 30.4992 54.4725 30.4992H58.1775V23.447C56.0199 23.1033 53.8398 22.9173 51.6547 22.8906C45.0405 22.8906 40.7223 26.8631 40.7223 34.0447V40.3593H33.3906V48.6408H40.7223V68.6715H49.763V48.6408H56.4946Z" fill="#337FFF"/>
</symbol><symbol viewBox="0 0 92 92" fill="none" id="svg-GitHub" xmlns="http://www.w3.org/2000/svg">
<path fill-rule="evenodd" clip-rule="evenodd" d="M45.7576 21C31.5265 21 20 32.4705 20 46.6323C20 57.9747 27.3731 67.5547 37.6117 70.951C38.8996 71.1753 39.3826 70.4063 39.3826 69.7335C39.3826 69.1247 39.3504 67.1062 39.3504 64.9595C32.8788 66.145 31.2045 63.3895 30.6894 61.9477C30.3996 61.2107 29.1439 58.9359 28.0492 58.3271C27.1477 57.8465 25.8598 56.661 28.017 56.629C30.0455 56.5969 31.4943 58.4873 31.9773 59.2563C34.2955 63.1332 37.9981 62.0438 39.4792 61.3709C39.7045 59.7048 40.3807 58.5834 41.1212 57.9426C35.3902 57.3018 29.4015 55.091 29.4015 45.2866C29.4015 42.4991 30.3996 40.1922 32.0417 38.398C31.7841 37.7571 30.8826 35.1298 32.2992 31.6054C32.2992 31.6054 34.4564 30.9325 39.3826 34.2327C41.4432 33.656 43.6326 33.3676 45.822 33.3676C48.0114 33.3676 50.2008 33.656 52.2614 34.2327C57.1875 30.9005 59.3447 31.6054 59.3447 31.6054C60.7614 35.1298 59.8598 37.7571 59.6023 38.398C61.2443 40.1922 62.2424 42.4671 62.2424 45.2866C62.2424 55.1231 56.2216 57.3018 50.4905 57.9426C51.4242 58.7436 52.2292 60.2816 52.2292 62.6846C52.2292 66.1129 52.197 68.8684 52.197 69.7335C52.197 70.4063 52.6799 71.2074 53.9678 70.951C64.142 67.5547 71.5151 57.9426 71.5151 46.6323C71.5151 32.4705 59.9886 21 45.7576 21Z" fill="#1B1F23"/>
</symbol>

<symbol viewBox="0 0 92 92" fill="none" id="svg-Gmail" xmlns="http://www.w3.org/2000/svg">
<path d="M21.6354 66H30.1182V45.3992L18 36.3105V62.3646C18 64.3762 19.6299 66 21.6354 66Z" fill="#4285F4"/>
<path d="M59.2031 66H67.6858C69.6975 66 71.3213 64.3702 71.3213 62.3646V36.3105L59.2031 45.3992" fill="#34A853"/>
<path d="M59.2031 29.6458V45.3994L71.3213 36.3108V31.4635C71.3213 26.9676 66.1892 24.4047 62.5962 27.1009" fill="#FBBC04"/>
<path d="M30.1172 45.3991V29.6455L44.659 40.5519L59.2008 29.6455V45.3991L44.659 56.3055" fill="#EA4335"/>
<path d="M18 31.4635V36.3108L30.1182 45.3994V29.6458L26.7251 27.1009C23.126 24.4047 18 26.9676 18 31.4635Z" fill="#C5221F"/>
</symbol>

<symbol viewBox="0 0 92 92" fill="none" id="svg-Instagram" xmlns="http://www.w3.org/2000/svg">
<path d="M37.4436 45.7812C37.4436 41.1791 41.1757 37.4472 45.7806 37.4472C50.3856 37.4472 54.1196 41.1791 54.1196 45.7812C54.1196 50.3834 50.3856 54.1152 45.7806 54.1152C41.1757 54.1152 37.4436 50.3834 37.4436 45.7812ZM32.9357 45.7812C32.9357 52.8713 38.6864 58.6185 45.7806 58.6185C52.8749 58.6185 58.6255 52.8713 58.6255 45.7812C58.6255 38.6912 52.8749 32.944 45.7806 32.944C38.6864 32.944 32.9357 38.6912 32.9357 45.7812ZM56.1322 32.4351C56.132 33.0284 56.3078 33.6085 56.6375 34.102C56.9671 34.5954 57.4358 34.9801 57.9842 35.2074C58.5326 35.4347 59.1361 35.4944 59.7185 35.3788C60.3008 35.2633 60.8358 34.9778 61.2558 34.5584C61.6758 34.139 61.9619 33.6046 62.0779 33.0227C62.194 32.4408 62.1348 31.8376 61.9078 31.2893C61.6808 30.741 61.2963 30.2723 60.8027 29.9425C60.3092 29.6127 59.7289 29.4365 59.1352 29.4362H59.134C58.3382 29.4366 57.5751 29.7526 57.0123 30.3149C56.4494 30.8772 56.1329 31.6397 56.1322 32.4351ZM35.6746 66.1306C33.2357 66.0196 31.9101 65.6136 31.0292 65.2706C29.8613 64.8162 29.028 64.275 28.1519 63.4007C27.2757 62.5262 26.7334 61.6942 26.2807 60.5271C25.9373 59.647 25.5311 58.3218 25.4202 55.8844C25.2989 53.2492 25.2747 52.4576 25.2747 45.7815C25.2747 39.1052 25.3009 38.3158 25.4202 35.6784C25.5313 33.241 25.9405 31.9184 26.2807 31.0358C26.7354 29.8686 27.2769 29.0358 28.1519 28.1603C29.0268 27.2847 29.8593 26.7427 31.0292 26.2903C31.9097 25.9471 33.2357 25.541 35.6746 25.4302C38.3113 25.309 39.1034 25.2848 45.7806 25.2848C52.4578 25.2848 53.2507 25.311 55.8897 25.4302C58.3286 25.5412 59.6519 25.9503 60.5351 26.2903C61.703 26.7427 62.5363 27.2859 63.4124 28.1603C64.2885 29.0346 64.8288 29.8686 65.2835 31.0358C65.6269 31.9158 66.0332 33.241 66.144 35.6784C66.2653 38.3158 66.2895 39.1052 66.2895 45.7815C66.2895 52.4576 66.2653 53.2471 66.144 55.8844C66.033 58.3218 65.6247 59.6466 65.2835 60.5271C64.8288 61.6942 64.2873 62.5271 63.4124 63.4007C62.5375 64.2743 61.703 64.8162 60.5351 65.2706C59.6545 65.6138 58.3286 66.0198 55.8897 66.1306C53.2529 66.2519 52.4608 66.2761 45.7806 66.2761C39.1004 66.2761 38.3105 66.2519 35.6746 66.1306ZM35.4674 20.9326C32.8044 21.0538 30.9848 21.4758 29.3956 22.0938C27.7498 22.732 26.3566 23.5882 24.9643 24.9774C23.5721 26.3666 22.7176 27.7612 22.079 29.406C21.4606 30.9952 21.0384 32.8128 20.9171 35.4742C20.7938 38.1399 20.7656 38.9921 20.7656 45.7812C20.7656 52.5704 20.7938 53.4226 20.9171 56.0882C21.0384 58.7498 21.4606 60.5672 22.079 62.1564C22.7176 63.8003 23.5723 65.1964 24.9643 66.585C26.3564 67.9736 27.7498 68.8287 29.3956 69.4687C30.9878 70.0867 32.8044 70.5086 35.4674 70.6298C38.136 70.751 38.9874 70.7812 45.7806 70.7812C52.5739 70.7812 53.4266 70.753 56.0938 70.6298C58.757 70.5086 60.5755 70.0867 62.1657 69.4687C63.8104 68.8287 65.2047 67.9742 66.5969 66.585C67.9891 65.1958 68.8419 63.8003 69.4822 62.1564C70.1006 60.5672 70.5249 58.7496 70.6441 56.0882C70.7654 53.4207 70.7936 52.5704 70.7936 45.7812C70.7936 38.9921 70.7654 38.1399 70.6441 35.4742C70.5229 32.8126 70.1006 30.9942 69.4822 29.406C68.8419 27.7622 67.9869 26.3688 66.5969 24.9774C65.2069 23.586 63.8104 22.732 62.1677 22.0938C60.5755 21.4758 58.7568 21.0518 56.0958 20.9326C53.4286 20.8115 52.5759 20.7812 45.7826 20.7812C38.9894 20.7812 38.136 20.8095 35.4674 20.9326Z" fill="url(#paint0_radial_1727_5879)"/>
<path d="M37.4436 45.7812C37.4436 41.1791 41.1757 37.4472 45.7806 37.4472C50.3856 37.4472 54.1196 41.1791 54.1196 45.7812C54.1196 50.3834 50.3856 54.1152 45.7806 54.1152C41.1757 54.1152 37.4436 50.3834 37.4436 45.7812ZM32.9357 45.7812C32.9357 52.8713 38.6864 58.6185 45.7806 58.6185C52.8749 58.6185 58.6255 52.8713 58.6255 45.7812C58.6255 38.6912 52.8749 32.944 45.7806 32.944C38.6864 32.944 32.9357 38.6912 32.9357 45.7812ZM56.1322 32.4351C56.132 33.0284 56.3078 33.6085 56.6375 34.102C56.9671 34.5954 57.4358 34.9801 57.9842 35.2074C58.5326 35.4347 59.1361 35.4944 59.7185 35.3788C60.3008 35.2633 60.8358 34.9778 61.2558 34.5584C61.6758 34.139 61.9619 33.6046 62.0779 33.0227C62.194 32.4408 62.1348 31.8376 61.9078 31.2893C61.6808 30.741 61.2963 30.2723 60.8027 29.9425C60.3092 29.6127 59.7289 29.4365 59.1352 29.4362H59.134C58.3382 29.4366 57.5751 29.7526 57.0123 30.3149C56.4494 30.8772 56.1329 31.6397 56.1322 32.4351ZM35.6746 66.1306C33.2357 66.0196 31.9101 65.6136 31.0292 65.2706C29.8613 64.8162 29.028 64.275 28.1519 63.4007C27.2757 62.5262 26.7334 61.6942 26.2807 60.5271C25.9373 59.647 25.5311 58.3218 25.4202 55.8844C25.2989 53.2492 25.2747 52.4576 25.2747 45.7815C25.2747 39.1052 25.3009 38.3158 25.4202 35.6784C25.5313 33.241 25.9405 31.9184 26.2807 31.0358C26.7354 29.8686 27.2769 29.0358 28.1519 28.1603C29.0268 27.2847 29.8593 26.7427 31.0292 26.2903C31.9097 25.9471 33.2357 25.541 35.6746 25.4302C38.3113 25.309 39.1034 25.2848 45.7806 25.2848C52.4578 25.2848 53.2507 25.311 55.8897 25.4302C58.3286 25.5412 59.6519 25.9503 60.5351 26.2903C61.703 26.7427 62.5363 27.2859 63.4124 28.1603C64.2885 29.0346 64.8288 29.8686 65.2835 31.0358C65.6269 31.9158 66.0332 33.241 66.144 35.6784C66.2653 38.3158 66.2895 39.1052 66.2895 45.7815C66.2895 52.4576 66.2653 53.2471 66.144 55.8844C66.033 58.3218 65.6247 59.6466 65.2835 60.5271C64.8288 61.6942 64.2873 62.5271 63.4124 63.4007C62.5375 64.2743 61.703 64.8162 60.5351 65.2706C59.6545 65.6138 58.3286 66.0198 55.8897 66.1306C53.2529 66.2519 52.4608 66.2761 45.7806 66.2761C39.1004 66.2761 38.3105 66.2519 35.6746 66.1306ZM35.4674 20.9326C32.8044 21.0538 30.9848 21.4758 29.3956 22.0938C27.7498 22.732 26.3566 23.5882 24.9643 24.9774C23.5721 26.3666 22.7176 27.7612 22.079 29.406C21.4606 30.9952 21.0384 32.8128 20.9171 35.4742C20.7938 38.1399 20.7656 38.9921 20.7656 45.7812C20.7656 52.5704 20.7938 53.4226 20.9171 56.0882C21.0384 58.7498 21.4606 60.5672 22.079 62.1564C22.7176 63.8003 23.5723 65.1964 24.9643 66.585C26.3564 67.9736 27.7498 68.8287 29.3956 69.4687C30.9878 70.0867 32.8044 70.5086 35.4674 70.6298C38.136 70.751 38.9874 70.7812 45.7806 70.7812C52.5739 70.7812 53.4266 70.753 56.0938 70.6298C58.757 70.5086 60.5755 70.0867 62.1657 69.4687C63.8104 68.8287 65.2047 67.9742 66.5969 66.585C67.9891 65.1958 68.8419 63.8003 69.4822 62.1564C70.1006 60.5672 70.5249 58.7496 70.6441 56.0882C70.7654 53.4207 70.7936 52.5704 70.7936 45.7812C70.7936 38.9921 70.7654 38.1399 70.6441 35.4742C70.5229 32.8126 70.1006 30.9942 69.4822 29.406C68.8419 27.7622 67.9869 26.3688 66.5969 24.9774C65.2069 23.586 63.8104 22.732 62.1677 22.0938C60.5755 21.4758 58.7568 21.0518 56.0958 20.9326C53.4286 20.8115 52.5759 20.7812 45.7826 20.7812C38.9894 20.7812 38.136 20.8095 35.4674 20.9326Z" fill="url(#paint1_radial_1727_5879)"/>
<defs>
<radialGradient id="paint0_radial_1727_5879" cx="0" cy="0" r="1" gradientUnits="userSpaceOnUse" gradientTransform="translate(27.4124 71.0175) scale(65.31 65.2708)">
<stop offset="0.09" stop-color="#FA8F21"/>
<stop offset="0.78" stop-color="#D82D7E"/>
</radialGradient>
<radialGradient id="paint1_radial_1727_5879" cx="0" cy="0" r="1" gradientUnits="userSpaceOnUse" gradientTransform="translate(51.1066 73.2574) scale(51.4733 51.4424)">
<stop offset="0.64" stop-color="#8C3AAA" stop-opacity="0"/>
<stop offset="1" stop-color="#8C3AAA"/>
</radialGradient>
</defs>
</symbol>

<symbol viewBox="0 0 92 92" fill="none" id="svg-Linkedin" xmlns="http://www.w3.org/2000/svg">
<path d="M21 24.5838C21 22.6057 22.6561 21 24.6975 21H67.3325C69.3747 21 71.03 22.6057 71.03 24.5838V67.4468C71.03 69.4255 69.3747 71.03 67.3325 71.03H24.6975C22.6563 71.03 21 69.4257 21 67.4474V24.5832V24.5838Z" fill="#006699"/>
<path d="M36.2012 62.8686V40.345H28.7147V62.8686H36.202H36.2012ZM32.4595 37.2703C35.0697 37.2703 36.6947 35.5407 36.6947 33.3793C36.6458 31.1686 35.0697 29.4873 32.5092 29.4873C29.9469 29.4873 28.2734 31.1686 28.2734 33.3791C28.2734 35.5405 29.8978 37.2701 32.4105 37.2701H32.459L32.4595 37.2703ZM40.3451 62.8686H47.8311V50.2918C47.8311 49.6195 47.8799 48.9455 48.0777 48.4653C48.6186 47.1198 49.8504 45.7269 51.9191 45.7269C54.6273 45.7269 55.7114 47.7922 55.7114 50.8204V62.8686H63.1971V49.9543C63.1971 43.0363 59.5043 39.8169 54.5789 39.8169C50.5407 39.8169 48.7672 42.074 47.7818 43.6112H47.8316V40.3458H40.3455C40.4432 42.4588 40.3449 62.8694 40.3449 62.8694L40.3451 62.8686Z" fill="white"/>
</symbol>

<symbol viewBox="0 0 92 92" fill="none" id="svg-Messenger" xmlns="http://www.w3.org/2000/svg">
<path d="M45.9042 23C33.0034 23 23 32.4537 23 45.2171C23 51.8936 25.737 57.6655 30.1919 61.6508C30.5641 61.9829 30.7931 62.4525 30.8046 62.9563L30.9306 67.0333C30.9397 67.3333 31.0225 67.6264 31.1714 67.8869C31.3204 68.1474 31.5311 68.3674 31.785 68.5274C32.0389 68.6874 32.3282 68.7826 32.6275 68.8047C32.9268 68.8267 33.227 68.7749 33.5016 68.6538L38.048 66.6496C38.4317 66.4779 38.8669 66.4492 39.2734 66.558C41.3634 67.1306 43.5851 67.4398 45.9042 67.4398C58.805 67.4398 68.8084 57.9861 68.8084 45.2228C68.8084 32.4594 58.805 23 45.9042 23Z" fill="url(#gpaint0_radial_1727_5888)"/>
<path d="M32.1502 51.7161L38.8783 41.0428C39.1314 40.6409 39.4651 40.2959 39.8583 40.0295C40.2514 39.7631 40.6955 39.5812 41.1626 39.4951C41.6296 39.409 42.1094 39.4206 42.5717 39.5293C43.034 39.638 43.4688 39.8414 43.8485 40.1266L49.2024 44.1406C49.4414 44.3195 49.7322 44.4157 50.0308 44.4147C50.3293 44.4137 50.6194 44.3154 50.8572 44.1348L58.0835 38.6493C59.0455 37.9163 60.3052 39.073 59.6639 40.098L52.93 50.7656C52.6769 51.1674 52.3433 51.5124 51.9501 51.7788C51.5569 52.0452 51.1128 52.2272 50.6458 52.3133C50.1787 52.3994 49.6989 52.3877 49.2366 52.279C48.7743 52.1703 48.3396 51.967 47.9598 51.6818L42.606 47.6678C42.367 47.4889 42.0762 47.3926 41.7776 47.3937C41.479 47.3947 41.1889 47.4929 40.9512 47.6735L33.7249 53.1591C32.7629 53.892 31.5032 52.7411 32.1502 51.7161Z" fill="white"/>
<defs>
<radialGradient id="gpaint0_radial_1727_5888" cx="0" cy="0" r="1" gradientUnits="userSpaceOnUse" gradientTransform="translate(30.6729 68.8084) scale(50.3892 50.3892)">
<stop stop-color="#0099FF"/>
<stop offset="0.6" stop-color="#A033FF"/>
<stop offset="0.9" stop-color="#FF5280"/>
<stop offset="1" stop-color="#FF7061"/>
</radialGradient>
</defs>
</symbol>

<symbol viewBox="0 0 92 92" fill="none" id="svg-Skype" xmlns="http://www.w3.org/2000/svg">
<path d="M50.2291 35.55C50.2291 39.4089 48.6894 43.1097 45.9486 45.8384C43.2079 48.5671 39.4906 50.1 35.6146 50.1C31.7385 50.1 28.0213 48.5671 25.2805 45.8384C22.5397 43.1097 21 39.4089 21 35.55C21 31.6911 22.5397 27.9902 25.2805 25.2616C28.0213 22.5329 31.7385 21 35.6146 21C39.4906 21 43.2079 22.5329 45.9486 25.2616C48.6894 27.9902 50.2291 31.6911 50.2291 35.55Z" fill="url(#hpaint0_linear_1727_5897)"/>
<path d="M70.5985 56.4446C70.5985 58.356 70.2204 60.2487 69.4857 62.0146C68.751 63.7805 67.6741 65.385 66.3166 66.7366C64.959 68.0881 63.3474 69.1603 61.5736 69.8917C59.7999 70.6232 57.8988 70.9996 55.979 70.9996C52.1016 70.9996 48.3831 69.4662 45.6413 66.7366C42.8996 64.007 41.3594 60.3049 41.3594 56.4446C41.3594 52.5844 42.8996 48.8823 45.6413 46.1527C48.3831 43.4231 52.1016 41.8896 55.979 41.8896C57.8988 41.8896 59.7999 42.2661 61.5736 42.9976C63.3474 43.729 64.959 44.8012 66.3166 46.1527C67.6741 47.5043 68.751 49.1088 69.4857 50.8747C70.2204 52.6406 70.5985 54.5333 70.5985 56.4446Z" fill="url(#hpaint1_linear_1727_5897)"/>
<path opacity="0.05" fill-rule="evenodd" clip-rule="evenodd" d="M21.0547 36.7947C21.2817 39.5438 22.2839 42.1724 23.9452 44.3759C25.6065 46.5793 27.8588 48.2675 30.4412 49.2448C33.0236 50.222 35.8304 50.4483 38.5363 49.8974C41.2422 49.3466 43.7365 48.0411 45.73 46.1323C47.7236 44.2235 49.1349 41.7895 49.8004 39.1123C50.4659 36.4352 50.3583 33.6245 49.4901 31.0059C48.622 28.3873 47.0287 26.068 44.8951 24.3168C42.7614 22.5656 40.1747 21.4542 37.4346 21.1113C33.714 22.3545 30.3155 24.4057 27.4833 27.1175C24.6511 29.8293 22.4556 33.1342 21.0547 36.7947Z" fill="black"/>
<path opacity="0.05" fill-rule="evenodd" clip-rule="evenodd" d="M70.5571 55.4003C70.3662 52.6177 69.3815 49.9479 67.7194 47.7068C66.0572 45.4656 63.7873 43.7468 61.178 42.7537C58.5688 41.7607 55.7293 41.5349 52.9956 42.103C50.2619 42.6712 47.7483 44.0096 45.7521 45.9598C43.756 47.9101 42.3607 50.3906 41.7315 53.108C41.1022 55.8254 41.2653 58.666 42.2014 61.2937C43.1375 63.9214 44.8074 66.2264 47.0137 67.9359C49.22 69.6455 51.8703 70.6881 54.6511 70.9403C58.27 69.6532 61.5662 67.5971 64.3123 64.9139C67.0584 62.2307 69.189 58.9843 70.5571 55.3987V55.4003Z" fill="black"/>
<path opacity="0.1" fill-rule="evenodd" clip-rule="evenodd" d="M21.7383 40.1218C22.5059 42.4674 23.8566 44.5803 25.6639 46.2627C27.4713 47.9452 29.6763 49.1423 32.0728 49.7421C34.4692 50.3419 36.9788 50.3247 39.3669 49.6923C41.7549 49.0599 43.9433 47.8328 45.7275 46.1258C47.5117 44.4188 48.8333 42.2877 49.5688 39.9318C50.3042 37.5759 50.4295 35.0721 49.9329 32.6547C49.4362 30.2373 48.3339 27.9852 46.729 26.109C45.1241 24.2328 43.0691 22.7939 40.7561 21.9268C36.198 22.8753 31.9983 25.084 28.6359 28.3009C25.2734 31.5179 22.8834 35.6138 21.7383 40.1218Z" fill="black"/>
<path opacity="0.1" fill-rule="evenodd" clip-rule="evenodd" d="M69.8928 51.9797C69.1365 49.6063 67.7847 47.4657 65.9661 45.7616C64.1476 44.0575 61.9227 42.8466 59.5032 42.2441C57.0838 41.6415 54.5502 41.6675 52.1436 42.3194C49.7371 42.9713 47.5375 44.2275 45.7543 45.9685C43.9711 47.7095 42.6635 49.8773 41.956 52.2657C41.2485 54.6541 41.1646 57.1835 41.7124 59.6135C42.2601 62.0434 43.4212 64.2929 45.0851 66.1479C46.7491 68.0029 48.8606 69.4018 51.2187 70.2113C55.7185 69.2026 59.8484 66.963 63.1464 63.7431C66.4444 60.5233 68.7804 56.4502 69.8928 51.9797Z" fill="black"/>
<path opacity="0.1" fill-rule="evenodd" clip-rule="evenodd" d="M22.2734 41.5019C23.2243 43.6421 24.677 45.5223 26.5087 46.9835C28.3404 48.4447 30.4973 49.444 32.7972 49.8969C35.0971 50.3499 37.4723 50.2432 39.7222 49.5859C41.9721 48.9286 44.0305 47.74 45.7235 46.1205C47.4166 44.501 48.6945 42.4982 49.4492 40.2814C50.204 38.0645 50.4135 35.6988 50.06 33.384C49.7064 31.0693 48.8003 28.8735 47.4181 26.9824C46.0359 25.0912 44.2183 23.5601 42.1188 22.5186C37.2635 23.2735 32.757 25.4986 29.2081 28.8934C25.6591 32.2882 23.2386 36.6891 22.2734 41.5019Z" fill="black"/>
<path opacity="0.1" fill-rule="evenodd" clip-rule="evenodd" d="M69.3548 50.572C68.4087 48.407 66.9507 46.5037 65.1058 45.0257C63.261 43.5477 61.0845 42.5391 58.7634 42.0866C56.4423 41.6341 54.0459 41.7513 51.7801 42.428C49.5143 43.1046 47.4468 44.3207 45.7552 45.9715C44.0636 47.6224 42.7986 49.6588 42.0687 51.9058C41.3388 54.1527 41.1659 56.5431 41.5648 58.8715C41.9638 61.2 42.9227 63.3969 44.3591 65.2735C45.7955 67.1501 47.6665 68.6504 49.8114 69.6454C54.6242 68.8285 59.0732 66.5652 62.565 63.1574C66.0568 59.7495 68.4254 55.3592 69.3548 50.572Z" fill="black"/>
<path d="M68.9471 46.1085C68.9471 49.1348 68.3484 52.1315 67.1851 54.9274C66.0219 57.7234 64.3168 60.2638 62.1674 62.4038C60.018 64.5437 57.4662 66.2412 54.6579 67.3993C51.8495 68.5574 48.8395 69.1535 45.7997 69.1535C42.76 69.1535 39.75 68.5574 36.9416 67.3993C34.1332 66.2412 31.5815 64.5437 29.4321 62.4038C27.2826 60.2638 25.5776 57.7234 24.4143 54.9274C23.2511 52.1315 22.6523 49.1348 22.6523 46.1085C22.6523 43.0822 23.2511 40.0855 24.4143 37.2895C25.5776 34.4936 27.2826 31.9531 29.4321 29.8132C31.5815 27.6733 34.1332 25.9758 36.9416 24.8177C39.75 23.6596 42.76 23.0635 45.7997 23.0635C48.8395 23.0635 51.8495 23.6596 54.6579 24.8177C57.4662 25.9758 60.018 27.6733 62.1674 29.8132C64.3168 31.9531 66.0219 34.4936 67.1851 37.2895C68.3484 40.0855 68.9471 43.0822 68.9471 46.1085Z" fill="url(#hpaint2_linear_1727_5897)"/>
<path fill-rule="evenodd" clip-rule="evenodd" d="M39.2911 45.3079C38.3557 44.6929 37.5751 43.8704 37.0102 42.9045C36.4649 41.8841 36.1957 40.7391 36.2294 39.5829C36.188 38.1155 36.6894 36.6844 37.6376 35.5629C38.623 34.4367 39.8896 33.5913 41.3083 33.1129C42.8514 32.5684 44.4772 32.2949 46.1137 32.3045C47.1844 32.2944 48.254 32.3764 49.3106 32.5495C50.0669 32.6662 50.8097 32.8577 51.528 33.1212C52.1877 33.3442 52.7832 33.724 53.2633 34.2279C53.6171 34.6424 53.8075 35.1715 53.7989 35.7162C53.8115 35.9992 53.7682 36.2818 53.6714 36.5481C53.5747 36.8143 53.4263 37.0589 53.2349 37.2679C53.0538 37.4604 52.834 37.6126 52.5898 37.7143C52.3457 37.8159 52.0828 37.8649 51.8184 37.8579C51.4545 37.8549 51.0956 37.7742 50.7655 37.6212C49.9521 37.2575 49.1141 36.9512 48.2577 36.7045C47.4695 36.4969 46.6569 36.396 45.8417 36.4045C44.7793 36.3655 43.7282 36.634 42.815 37.1779C42.4297 37.4118 42.1143 37.7447 41.9018 38.142C41.6893 38.5392 41.5875 38.9862 41.607 39.4362C41.6014 40.027 41.8264 40.5967 42.2344 41.0245C42.7191 41.5271 43.292 41.9367 43.9246 42.2329C44.6332 42.584 45.6899 43.0495 47.0948 43.6295C47.2504 43.6788 47.4021 43.7395 47.5486 43.8112C48.9196 44.3529 50.234 45.0278 51.473 45.8262C52.4515 46.4635 53.2766 47.3093 53.889 48.3029C54.492 49.3472 54.7941 50.5377 54.7616 51.7429C54.8122 53.2184 54.3889 54.6715 53.5536 55.8895C52.703 57.0428 51.5262 57.9152 50.1749 58.3945C48.5462 58.9758 46.8251 59.2559 45.0959 59.2212C42.7197 59.3043 40.3548 58.8573 38.1732 57.9129C37.6155 57.6648 37.1265 57.285 36.7483 56.8062C36.4343 56.3675 36.2715 55.8387 36.2844 55.2995C36.2688 55.0152 36.3152 54.7308 36.4204 54.4661C36.5255 54.2013 36.6869 53.9626 36.8934 53.7662C37.3264 53.3875 37.8885 53.1894 38.4635 53.2129C39.1042 53.2216 39.7335 53.3833 40.2989 53.6845C41.0019 54.0357 41.5564 54.299 41.9624 54.4745C42.4261 54.6685 42.9064 54.8202 43.3973 54.9279C44.0028 55.0605 44.6213 55.1243 45.2411 55.1179C46.3371 55.1961 47.4278 54.9056 48.3395 54.2929C48.6808 54.0261 48.9535 53.682 49.1352 53.289C49.3168 52.896 49.4021 52.4654 49.384 52.0329C49.385 51.4196 49.151 50.8292 48.7299 50.3829C48.1735 49.8091 47.5221 49.3355 46.8045 48.9829C45.9557 48.5362 44.7622 47.9918 43.2238 47.3495C41.8479 46.8019 40.5305 46.1179 39.2911 45.3079Z" fill="white"/>
<defs>
<linearGradient id="hpaint0_linear_1727_5897" x1="33.3354" y1="21.1767" x2="37.8839" y2="49.9249" gradientUnits="userSpaceOnUse">
<stop offset="0.012" stop-color="#00B7F0"/>
<stop offset="0.339" stop-color="#009DE5"/>
<stop offset="0.755" stop-color="#0082D9"/>
<stop offset="1" stop-color="#0078D4"/>
</linearGradient>
<linearGradient id="hpaint1_linear_1727_5897" x1="43.3249" y1="63.7413" x2="68.6173" y2="49.1236" gradientUnits="userSpaceOnUse">
<stop stop-color="#0078D4"/>
<stop offset="0.37" stop-color="#007AD5"/>
<stop offset="0.573" stop-color="#0082D9"/>
<stop offset="0.735" stop-color="#0090DF"/>
<stop offset="0.875" stop-color="#00A3E7"/>
<stop offset="1" stop-color="#00BCF2"/>
</linearGradient>
<linearGradient id="hpaint2_linear_1727_5897" x1="36.7664" y1="30.4818" x2="59.8219" y2="70.459" gradientUnits="userSpaceOnUse">
<stop stop-color="#00B7F0"/>
<stop offset="1" stop-color="#007CC1"/>
</linearGradient>
</defs>
</symbol>

<symbol viewBox="0 0 92 92" fill="none" id="svg-Telegram" xmlns="http://www.w3.org/2000/svg">
<path d="M46.015 74.03C59.8304 74.03 71.03 62.8304 71.03 49.015C71.03 35.1996 59.8304 24 46.015 24C32.1996 24 21 35.1996 21 49.015C21 62.8304 32.1996 74.03 46.015 74.03Z" fill="#34AADF"/>
<path d="M31.7255 48.4671C31.7255 48.4671 44.1166 43.1955 48.4141 41.3392C50.0615 40.5968 55.6483 38.2208 55.6483 38.2208C55.6483 38.2208 58.2268 37.1814 58.0119 39.7058C57.9402 40.7453 57.3673 44.3834 56.7943 48.3186C55.9347 53.8873 55.0036 59.9757 55.0036 59.9757C55.0036 59.9757 54.8604 61.6834 53.6428 61.9804C52.4252 62.2774 50.4196 60.941 50.0615 60.6439C49.7749 60.4212 44.6896 57.08 42.8274 55.4465C42.326 55.001 41.753 54.1101 42.8989 53.0706C45.4775 50.6204 48.5573 47.5762 50.4196 45.6457C51.2791 44.7547 52.1386 42.6757 48.5573 45.2002C43.472 48.8384 38.4582 52.2538 38.4582 52.2538C38.4582 52.2538 37.3122 52.9963 35.1635 52.328C33.0147 51.6599 30.5078 50.7688 30.5078 50.7688C30.5078 50.7688 28.7889 49.6551 31.7255 48.4671Z" fill="white"/>
</symbol><symbol viewBox="0 0 92 92" fill="none" id="svg-Tik_Tok" xmlns="http://www.w3.org/2000/svg">
<path fill-rule="evenodd" clip-rule="evenodd" d="M55.5491 39.4285C58.6157 41.6085 62.2881 42.7733 66.0506 42.7592V35.3024C65.311 35.3045 64.5733 35.2253 63.8509 35.0663V41.0068C60.0799 41.0135 56.4021 39.8354 53.3369 37.6389V52.9749C53.3276 55.4914 52.6375 57.9585 51.3397 60.1146C50.0419 62.2706 48.1849 64.0353 45.9654 65.2215C43.746 66.4076 41.2469 66.9711 38.7332 66.852C36.2195 66.733 33.7849 65.9359 31.6875 64.5453C33.6275 66.5082 36.1064 67.8513 38.8103 68.4044C41.5142 68.9576 44.3213 68.6959 46.8764 67.6526C49.4315 66.6093 51.6194 64.8312 53.1633 62.5436C54.7072 60.256 55.5375 57.5616 55.5491 54.8018V39.4285ZM58.2708 31.8226C56.7113 30.1323 55.7544 27.9739 55.5491 25.6832V24.7139H53.4612C53.7193 26.1699 54.2809 27.5553 55.1095 28.78C55.9381 30.0048 57.0152 31.0414 58.2708 31.8226ZM36.522 58.642C35.7983 57.6957 35.3548 56.5653 35.242 55.3793C35.1292 54.1934 35.3515 52.9996 35.8838 51.9338C36.416 50.8681 37.2368 49.9731 38.2526 49.3508C39.2684 48.7285 40.4386 48.4039 41.6298 48.4139C42.2875 48.4137 42.9413 48.5143 43.5686 48.7121V41.0068C42.8354 40.9097 42.0959 40.8682 41.3564 40.8826V46.8728C39.8292 46.39 38.1762 46.4998 36.7262 47.1803C35.2762 47.8608 34.1355 49.0621 33.5309 50.5454C32.9263 52.0286 32.9022 53.6851 33.4633 55.1853C34.0244 56.6855 35.1297 57.9196 36.5592 58.642H36.522Z" fill="#EE1D52"/>
<path fill-rule="evenodd" clip-rule="evenodd" d="M53.3339 37.5892C56.3991 39.7857 60.0769 40.9638 63.8479 40.9571V35.0166C61.6993 34.5623 59.7476 33.4452 58.2677 31.8226C57.0122 31.0414 55.9351 30.0048 55.1065 28.78C54.2779 27.5553 53.7162 26.1699 53.4581 24.7139H47.965V54.8018C47.9599 56.1336 47.5379 57.4304 46.7581 58.51C45.9784 59.5897 44.8801 60.3981 43.6175 60.8217C42.3548 61.2453 40.9912 61.2629 39.7181 60.872C38.445 60.4811 37.3262 59.7012 36.5189 58.642C35.2395 57.9965 34.2149 56.9387 33.6104 55.6394C33.0059 54.3401 32.8568 52.875 33.1871 51.4805C33.5174 50.0861 34.3079 48.8435 35.431 47.9535C36.5541 47.0634 37.9443 46.5776 39.3773 46.5745C40.0349 46.5766 40.6884 46.6772 41.3161 46.8728V40.8826C38.6038 40.9477 35.9696 41.8033 33.7367 43.3444C31.5039 44.8855 29.7696 47.0451 28.7467 49.5579C27.7239 52.0708 27.4571 54.8276 27.9789 57.49C28.5008 60.1524 29.7887 62.6045 31.6845 64.5453C33.7823 65.9459 36.2208 66.7512 38.7401 66.8755C41.2595 66.9997 43.7654 66.4383 45.9908 65.2509C48.2163 64.0636 50.0781 62.2948 51.3777 60.133C52.6774 57.9712 53.3663 55.4973 53.3712 52.9749L53.3339 37.5892Z" fill="black"/>
<path fill-rule="evenodd" clip-rule="evenodd" d="M63.8505 35.0161V33.4129C61.8774 33.4213 59.9425 32.8696 58.2704 31.8221C59.7465 33.4493 61.6999 34.5674 63.8505 35.0161ZM53.4608 24.7134C53.4608 24.4275 53.3738 24.1292 53.3365 23.8434V22.874H45.7555V52.9744C45.7489 54.6598 45.0739 56.2738 43.8786 57.4621C42.6833 58.6504 41.0654 59.3159 39.38 59.3126C38.3876 59.3176 37.4081 59.0876 36.5216 58.6415C37.3289 59.7007 38.4476 60.4805 39.7208 60.8715C40.9939 61.2624 42.3575 61.2448 43.6201 60.8212C44.8828 60.3976 45.981 59.5892 46.7608 58.5095C47.5405 57.4298 47.9626 56.1331 47.9677 54.8013V24.7134H53.4608ZM41.3187 40.8696V39.167C38.1992 38.7432 35.0281 39.3885 32.3222 40.9977C29.6164 42.6069 27.5353 45.0851 26.4183 48.0284C25.3012 50.9718 25.2139 54.2067 26.1707 57.206C27.1275 60.2053 29.072 62.792 31.6871 64.5448C29.8057 62.5995 28.5315 60.1484 28.0203 57.4908C27.5091 54.8333 27.7829 52.0844 28.8085 49.5799C29.834 47.0755 31.5667 44.924 33.795 43.3882C36.0232 41.8524 38.6506 40.9988 41.356 40.9318L41.3187 40.8696Z" fill="#69C9D0"/>
</symbol><symbol viewBox="0 0 92 92" fill="none" id="svg-Twitter" xmlns="http://www.w3.org/2000/svg">
<path d="M68.943 31.1457C67.4312 31.7963 65.8418 32.2494 64.2141 32.4937C64.9751 32.3632 66.0948 30.9935 66.5405 30.4391C67.2176 29.6028 67.7337 28.6481 68.0624 27.6235C68.0624 27.5474 68.1385 27.4387 68.0624 27.3843C68.0241 27.3634 67.9811 27.3524 67.9374 27.3524C67.8937 27.3524 67.8508 27.3634 67.8124 27.3843C66.045 28.3414 64.164 29.0719 62.2139 29.5585C62.1459 29.5793 62.0736 29.5811 62.0046 29.5639C61.9357 29.5467 61.8727 29.511 61.8225 29.4607C61.6707 29.2799 61.5073 29.1092 61.3333 28.9497C60.5379 28.2371 59.6355 27.6538 58.6591 27.2213C57.341 26.6805 55.9173 26.4463 54.4955 26.5364C53.1159 26.6235 51.769 26.9936 50.5385 27.6235C49.3268 28.2876 48.2618 29.1899 47.4076 30.276C46.5091 31.3939 45.8605 32.6913 45.5052 34.0808C45.2123 35.4026 45.1791 36.7687 45.4074 38.1031C45.4074 38.3314 45.4074 38.364 45.2117 38.3314C37.4607 37.1899 31.1012 34.4396 25.9049 28.5366C25.6766 28.2757 25.557 28.2757 25.3722 28.5366C23.1111 31.9719 24.209 37.4073 27.0355 40.0925C27.416 40.4512 27.8073 40.7991 28.2204 41.1252C26.9245 41.0332 25.6603 40.682 24.5026 40.0925C24.2851 39.9511 24.1656 40.0272 24.1547 40.2881C24.1239 40.6498 24.1239 41.0135 24.1547 41.3752C24.3815 43.1087 25.0647 44.7508 26.1343 46.1337C27.2039 47.5166 28.6216 48.5905 30.2424 49.2458C30.6375 49.415 31.0492 49.5426 31.4708 49.6263C30.2711 49.8625 29.0407 49.8992 27.8291 49.735C27.5682 49.6806 27.4703 49.822 27.5682 50.072C29.1662 54.4204 32.634 55.7466 35.1778 56.4858C35.5257 56.5402 35.8736 56.5402 36.2649 56.6272C36.2649 56.6272 36.2649 56.6272 36.1997 56.6924C35.4496 58.0621 32.4166 58.9862 31.0251 59.4645C28.4853 60.3768 25.7774 60.7255 23.0893 60.4864C22.6654 60.4211 22.5675 60.432 22.4588 60.4864C22.3501 60.5407 22.4588 60.6603 22.5784 60.769C23.122 61.1277 23.6655 61.443 24.2308 61.7474C25.9137 62.6653 27.6928 63.3944 29.5358 63.9216C39.0805 66.5523 49.821 64.6173 56.985 57.4968C62.6161 51.9092 64.5946 44.2017 64.5946 36.4833C64.5946 36.1898 64.9534 36.0159 65.1599 35.8637C66.5846 34.7536 67.8405 33.4427 68.8886 31.9719C69.0701 31.7526 69.1632 31.4735 69.1495 31.1892C69.1495 31.0261 69.1495 31.0587 68.943 31.1457Z" fill="#33CCFF"/>
</symbol>

<symbol viewBox="0 0 92 92" fill="none" id="svg-Viber" xmlns="http://www.w3.org/2000/svg">
<path d="M35.0952 64.2563C35.0952 63.4894 35.0952 62.7226 35.0952 61.9558C35.1006 61.9244 35.0995 61.8923 35.0919 61.8614C35.0843 61.8305 35.0704 61.8015 35.051 61.7761C35.0316 61.7507 35.0072 61.7296 34.9792 61.7139C34.9513 61.6983 34.9203 61.6885 34.8884 61.6852C32.9685 61.1452 31.1965 60.1833 29.7044 58.8711C28.6172 57.8921 27.712 56.7318 27.03 55.443C26.0687 53.5813 25.429 51.5734 25.1373 49.5027C24.7759 46.9051 24.6503 44.2807 24.7622 41.6609C24.7868 40.4395 24.8498 39.232 24.9901 38.0107C25.2136 35.6897 25.8051 33.4181 26.7426 31.2792C27.9002 28.6495 30.0004 26.5371 32.6381 25.3493C34.4349 24.5354 36.3252 23.9411 38.2673 23.5797C40.1717 23.2226 42.0999 23.0035 44.0366 22.924C45.7823 22.8628 47.53 22.8883 49.2732 23.0003C51.768 23.1045 54.2403 23.5136 56.6338 24.2182C58.4084 24.7246 60.0966 25.4906 61.6426 26.4909C63.1489 27.5145 64.3671 28.9009 65.1827 30.5194C66.1415 32.4097 66.7933 34.4378 67.114 36.5291C67.3223 37.7706 67.4593 39.023 67.5241 40.2799C67.6152 41.8379 67.6047 43.4027 67.5451 44.9537C67.4855 46.5047 67.3523 48.0106 67.1596 49.5304C66.9159 51.8115 66.2076 54.0199 65.0775 56.0224C63.6066 58.5556 61.2503 60.4686 58.453 61.4006C56.5402 62.0637 54.5652 62.5357 52.5574 62.8094C51.0888 63.0106 49.6167 63.1563 48.1375 63.2153C47.0054 63.2674 45.8733 63.2535 44.7411 63.2362C44.0997 63.2362 43.4618 63.1737 42.8238 63.1182C42.7612 63.1065 42.6965 63.1134 42.6379 63.1381C42.5792 63.1628 42.5293 63.2042 42.4944 63.257C41.2045 64.7906 39.8656 66.2826 38.5161 67.7677C38.2703 68.0387 37.9857 68.2725 37.6714 68.4617C37.4651 68.5957 37.2298 68.6798 36.9846 68.7072C36.7394 68.7346 36.4911 68.7045 36.2598 68.6194C36.0285 68.5343 35.8207 68.3965 35.6531 68.2172C35.4855 68.0379 35.3628 67.8222 35.295 67.5873C35.1614 67.1699 35.0951 66.7343 35.0987 66.2965C35.0952 65.6095 35.0952 64.9329 35.0952 64.2563ZM36.6549 67.1674L36.8197 67.0148L39.7464 63.7983C40.8727 62.5607 41.9978 61.322 43.1218 60.0821C43.177 60.0065 43.2516 59.9467 43.3378 59.9089C43.424 59.8711 43.5188 59.8566 43.6125 59.867C43.9945 59.9051 44.3766 59.919 44.7622 59.9225C46.0941 59.9225 47.426 59.9225 48.7579 59.8288C49.9672 59.7351 51.1729 59.5894 52.3717 59.402C53.6623 59.1796 54.94 58.8889 56.1992 58.5311C59.0033 57.7851 61.1729 56.189 62.5364 53.604C63.3413 52.0147 63.8462 50.2931 64.026 48.5242C64.2391 46.8569 64.3666 45.18 64.4081 43.4999C64.4702 41.3894 64.3246 39.2779 63.9734 37.1953C63.7299 35.6864 63.2917 34.2147 62.6696 32.8164C61.8774 31.0815 60.7558 29.645 59.0278 28.722C56.378 27.3063 53.5108 26.6748 50.556 26.3521C49.7183 26.2619 48.8806 26.2133 48.0394 26.1821C46.3169 26.0942 44.5908 26.1035 42.8694 26.2099C41.6314 26.3008 40.4001 26.4653 39.1821 26.7026C37.3908 27.0258 35.658 27.6105 34.0401 28.4375C33.1022 28.9066 32.2513 29.5296 31.5235 30.2799C30.3439 31.5851 29.4787 33.138 28.9928 34.8219C28.4165 36.7831 28.1019 38.8105 28.057 40.8524C27.9442 42.8944 27.97 44.9416 28.1341 46.9801C28.2362 48.1933 28.4414 49.3958 28.7475 50.5748C29.2029 52.4122 30.0864 54.1186 31.3272 55.5575C32.6669 57.0254 34.3983 58.0887 36.3219 58.6248C36.5638 58.6976 36.6725 58.7809 36.6725 59.0516C36.6514 60.0509 36.6725 61.0502 36.6725 62.0495L36.6549 67.1674Z" fill="#754A91"/>
<path d="M34.2021 36.1753C34.1775 35.4154 34.5946 34.8637 35.0994 34.3675C35.765 33.7363 36.4984 33.1789 37.2865 32.7055C37.6459 32.4861 38.0732 32.4025 38.4898 32.4701C38.9064 32.5377 39.2844 32.7519 39.5543 33.0733C40.5078 34.0655 41.3612 35.1474 42.1025 36.3037C42.4695 36.8238 42.7467 37.4007 42.9227 38.0108C42.993 38.2489 42.9976 38.5013 42.9359 38.7418C42.8743 38.9822 42.7487 39.2019 42.5722 39.3779C42.1678 39.7709 41.7368 40.136 41.2823 40.4709C41.0533 40.6516 40.883 40.895 40.7926 41.1708C40.7022 41.4466 40.6958 41.7426 40.7741 42.0219C41.0548 43.3338 41.6909 44.5453 42.6142 45.5264C43.7362 46.8823 45.1818 47.9401 46.8203 48.6042C47.2229 48.8091 47.6843 48.8715 48.1277 48.7811C48.3706 48.7155 48.5864 48.5759 48.7446 48.3821C48.9899 48.0733 49.2563 47.7749 49.4772 47.4452C49.7636 47.0341 50.2009 46.7499 50.6959 46.6533C51.1909 46.5567 51.7044 46.6554 52.127 46.9282C53.3151 47.6106 54.4368 48.4005 55.4778 49.2877C55.7232 49.4959 55.9791 49.6971 56.2244 49.9088C56.5147 50.128 56.7244 50.4354 56.8213 50.7839C56.9181 51.1323 56.8968 51.5027 56.7607 51.838C56.5441 52.402 56.2285 52.9235 55.8283 53.3786C55.3311 54.0628 54.6977 54.639 53.9671 55.0719C53.6179 55.2749 53.2255 55.3941 52.8214 55.42C52.4172 55.4459 52.0125 55.3778 51.6398 55.2211C48.8039 54.0908 46.1542 52.5483 43.7779 50.6444C41.4537 48.7503 39.4225 46.5291 37.7492 44.0518C36.3412 42.0009 35.221 39.7703 34.4194 37.421C34.334 37.1368 34.2638 36.8484 34.2091 36.557C34.1935 36.4303 34.1911 36.3024 34.2021 36.1753Z" fill="#754A91"/>
<path d="M46.3053 32.4835C48.6779 32.527 50.96 33.3933 52.7535 34.9317C54.547 36.47 55.7382 38.5826 56.1195 40.9013C56.273 41.7443 56.3551 42.5985 56.3648 43.4551C56.3648 43.6563 56.3123 43.802 56.095 43.8229C55.8776 43.8437 55.8216 43.6598 55.8216 43.4759C55.8541 41.7433 55.4948 40.0255 54.77 38.4481C54.1597 37.152 53.2554 36.0128 52.1277 35.1191C51 34.2255 49.6792 33.6014 48.2681 33.2955C47.5221 33.1245 46.7591 33.036 45.9933 33.0318C45.9188 33.033 45.8444 33.0237 45.7725 33.004C45.7113 32.9869 45.6592 32.947 45.6272 32.8926C45.5951 32.8382 45.5857 32.7737 45.6008 32.7125C45.6012 32.6835 45.6075 32.6549 45.6192 32.6283C45.631 32.6017 45.6479 32.5777 45.6692 32.5577C45.6904 32.5377 45.7154 32.5221 45.7428 32.5117C45.7701 32.5013 45.7993 32.4965 45.8286 32.4974C45.9863 32.4766 46.1476 32.4835 46.3053 32.4835Z" fill="#754A91"/>
<path d="M53.0675 41.8935C53.0558 40.9296 52.816 39.9818 52.3674 39.1261C51.9188 38.2705 51.2738 37.5308 50.4843 36.9664C49.5629 36.3257 48.4916 35.928 47.3718 35.811C47.1825 35.7867 46.9933 35.7763 46.8005 35.7555C46.6077 35.7346 46.492 35.6548 46.5096 35.4605C46.5271 35.2662 46.6498 35.1968 46.8601 35.2107C49.9656 35.3981 52.6084 37.1364 53.4216 40.3738C53.5703 40.998 53.6444 41.6373 53.6424 42.2787C53.6424 42.3377 53.6424 42.3967 53.6424 42.4522C53.6424 42.6257 53.5302 42.7402 53.3585 42.7367C53.3204 42.7354 53.2829 42.7265 53.2485 42.7104C53.214 42.6944 53.1832 42.6715 53.1579 42.6432C53.1327 42.615 53.1135 42.5819 53.1016 42.5461C53.0896 42.5103 53.0852 42.4724 53.0886 42.4348C53.0605 42.2717 53.0675 42.1052 53.0675 41.8935Z" fill="#754A91"/>
<path d="M47.6285 38.028C49.332 38.1425 50.5202 38.9683 50.8462 40.7622C50.8857 40.992 50.9138 41.2237 50.9303 41.4562C50.9303 41.6436 50.8882 41.8032 50.6815 41.8032C50.4747 41.8032 50.4046 41.6644 50.3975 41.4562C50.3956 40.7686 50.1816 40.0979 49.7842 39.5339C49.3665 39.0231 48.7668 38.6903 48.1087 38.604C47.9616 38.5768 47.813 38.5582 47.6636 38.5485C47.4182 38.5485 47.2815 38.4271 47.3131 38.2397C47.3446 38.0523 47.4918 38.0176 47.6285 38.028Z" fill="#754A91"/>
</symbol>

<symbol viewBox="0 0 92 92" fill="none" id="svg-Vimeo" xmlns="http://www.w3.org/2000/svg">
<path d="M68.4458 36.2988C68.2474 40.4006 65.2163 46.0174 59.354 53.1461C53.2927 60.5928 48.1646 64.3158 43.9695 64.3158C41.3718 64.3158 39.1717 62.0489 37.376 57.5134C36.1759 53.356 34.9771 49.1991 33.7774 45.0417C32.4431 40.5087 31.0125 38.2393 29.483 38.2393C29.1495 38.2393 27.9824 38.9026 25.9843 40.224L23.8867 37.6698C26.0868 35.8424 28.2574 34.0155 30.3929 32.186C33.3272 29.7891 35.5299 28.5287 36.998 28.4012C40.4677 28.0862 42.6031 30.3279 43.4047 35.1266C44.2709 40.3039 44.8701 43.5242 45.2071 44.7847C46.207 49.08 47.3073 51.225 48.5097 51.225C49.4427 51.225 50.8444 49.832 52.7132 47.0461C54.5802 44.2594 55.5802 42.1393 55.7153 40.6828C55.981 38.278 54.9806 37.0726 52.7132 37.0726C51.6459 37.0726 50.5457 37.3048 49.4138 37.7636C51.6045 30.9802 55.7906 27.6858 61.9695 27.8738C66.5502 28.0008 68.7097 30.809 68.4458 36.2988Z" fill="#32B8E8"/>
</symbol>

<symbol viewBox="0 0 92 92" fill="none" id="svg-Vkontakte" xmlns="http://www.w3.org/2000/svg">
<path fill-rule="evenodd" clip-rule="evenodd" d="M72.1482 31.9543C72.5332 30.745 72.1482 29.8564 70.3154 29.8564H64.2551C62.7142 29.8564 62.0038 30.6241 61.6185 31.4705C61.6185 31.4705 58.5366 38.5449 54.1707 43.1401C52.7582 44.4703 52.1161 44.8935 51.3456 44.8935C50.9605 44.8935 50.4028 44.4703 50.4028 43.2611V31.9544C50.4028 30.5032 49.9556 29.8564 48.6714 29.8564H39.148C38.1851 29.8564 37.6059 30.53 37.6059 31.1683C37.6059 32.544 39.7888 32.8612 40.0138 36.731V45.1355C40.0138 46.9781 39.6604 47.3122 38.89 47.3122C36.8355 47.3122 31.8379 40.2063 28.8739 32.0752C28.2931 30.4948 27.7105 29.8564 26.1616 29.8564H20.1013C18.3698 29.8564 18.0234 30.6241 18.0234 31.4705C18.0234 32.9822 20.078 40.4798 27.5899 50.3958C32.5978 57.1677 39.6536 60.8386 46.0741 60.8386C49.9264 60.8386 50.4029 60.0233 50.4029 58.6189V53.5007C50.4029 51.8701 50.7679 51.5446 51.9878 51.5446C52.8866 51.5446 54.4275 51.9679 58.0231 55.2329C62.1321 59.1026 62.8096 60.8386 65.1209 60.8386H71.1812C72.9127 60.8386 73.7785 60.0233 73.279 58.4143C72.7325 56.8107 70.7706 54.484 68.1674 51.726C66.7549 50.154 64.6361 48.461 63.994 47.6144C63.0952 46.5262 63.352 46.0423 63.994 45.075C63.994 45.075 71.3777 35.2798 72.1482 31.9543Z" fill="#2787F5"/>
</symbol>

<symbol viewBox="0 0 92 92" fill="none" id="svg-Whatsapp" xmlns="http://www.w3.org/2000/svg">
<path d="M22.8906 66.8405L26.1753 54.6381C23.5263 49.8847 22.6847 44.3378 23.8049 39.0154C24.9251 33.693 27.932 28.952 32.2738 25.6624C36.6156 22.3729 42.0011 20.7554 47.4421 21.1068C52.883 21.4582 58.0144 23.755 61.8946 27.5756C65.7749 31.3962 68.1437 36.4844 68.5664 41.9065C68.989 47.3286 67.4373 52.7208 64.1958 57.0938C60.9543 61.4668 56.2405 64.5271 50.9195 65.7133C45.5984 66.8994 40.027 66.1318 35.2276 63.5513L22.8906 66.8405ZM35.8224 58.985L36.5854 59.4365C40.0617 61.4918 44.122 62.3423 48.1336 61.8555C52.1451 61.3687 55.8825 59.5719 58.7634 56.7452C61.6443 53.9185 63.5068 50.2206 64.0607 46.2279C64.6146 42.2351 63.8288 38.1717 61.8257 34.6709C59.8226 31.1701 56.7148 28.4285 52.9865 26.8734C49.2582 25.3184 45.119 25.0372 41.2137 26.0736C37.3085 27.11 33.8567 29.4059 31.3962 32.6035C28.9357 35.801 27.6047 39.7206 27.6107 43.7514C27.6075 47.0937 28.5341 50.3712 30.2876 53.2192L30.7661 54.0061L28.9298 60.8167L35.8224 58.985Z" fill="#00D95F"/>
<path fill-rule="evenodd" clip-rule="evenodd" d="M54.3404 46.8847C53.8931 46.5249 53.3694 46.2716 52.8091 46.1442C52.2489 46.0168 51.6669 46.0186 51.1074 46.1495C50.2669 46.4977 49.7237 47.8134 49.1806 48.4713C49.0661 48.629 48.8978 48.7396 48.7073 48.7823C48.5168 48.8251 48.3173 48.797 48.1461 48.7034C45.0687 47.5012 42.4893 45.2965 40.8267 42.4475C40.6848 42.2697 40.6177 42.044 40.6394 41.8178C40.6612 41.5916 40.77 41.3827 40.943 41.235C41.5488 40.6368 41.9936 39.8959 42.2362 39.0809C42.2901 38.1818 42.0836 37.2863 41.6414 36.5011C41.2995 35.4002 40.6488 34.42 39.7663 33.6762C39.3111 33.472 38.8063 33.4036 38.313 33.4791C37.8197 33.5546 37.3588 33.7709 36.9859 34.1019C36.3386 34.6589 35.8249 35.3537 35.4825 36.135C35.14 36.9163 34.9777 37.7643 35.0074 38.6165C35.0093 39.0951 35.0702 39.5716 35.1884 40.0354C35.4887 41.1497 35.9505 42.2144 36.5592 43.1956C36.9983 43.9473 37.4775 44.6749 37.9946 45.3755C39.6751 47.6767 41.7876 49.6305 44.2148 51.1284C45.4328 51.8897 46.7345 52.5086 48.0943 52.973C49.5069 53.6117 51.0665 53.8568 52.6075 53.6824C53.4855 53.5499 54.3174 53.2041 55.03 52.6755C55.7426 52.1469 56.314 51.4518 56.694 50.6512C56.9172 50.1675 56.985 49.6269 56.8879 49.1033C56.6552 48.0327 55.2197 47.4007 54.3404 46.8847Z" fill="#00D95F"/>
</symbol>

<symbol viewBox="0 0 92 92" fill="none" id="svg-Youtube" xmlns="http://www.w3.org/2000/svg">
<path d="M71.2471 33.1872C70.6493 30.9398 68.8809 29.1668 66.6309 28.5592C62.5626 27.4688 46.2396 27.4688 46.2396 27.4688C46.2396 27.4688 29.925 27.4688 25.8484 28.5592C23.6067 29.1585 21.8383 30.9315 21.2322 33.1872C20.1445 37.2659 20.1445 45.7811 20.1445 45.7811C20.1445 45.7811 20.1445 54.2964 21.2322 58.375C21.83 60.6224 23.5984 62.3954 25.8484 63.0031C29.925 64.0935 46.2396 64.0935 46.2396 64.0935C46.2396 64.0935 62.5626 64.0935 66.6309 63.0031C68.8726 62.4037 70.641 60.6308 71.2471 58.375C72.3348 54.2964 72.3348 45.7811 72.3348 45.7811C72.3348 45.7811 72.3348 37.2659 71.2471 33.1872Z" fill="#FF3000"/>
<path d="M41.0256 53.6305L54.5838 45.7811L41.0256 37.9318V53.6305Z" fill="white"/>
</symbol>

</svg>