<svg width="82" height="82" viewBox="0 0 82 82" fill="none" xmlns="http://www.w3.org/2000/svg">
<circle cx="41" cy="41" r="41" fill="white"/>
<path fill-rule="evenodd" clip-rule="evenodd" d="M41.0001 13.6667C33.5767 13.6667 32.6459 13.6981 29.7305 13.8311C26.8212 13.9638 24.8342 14.4259 23.0956 15.1017C21.2982 15.8001 19.7739 16.7347 18.2543 18.2542C16.7347 19.7739 15.8001 21.2982 15.1017 23.0956C14.426 24.8342 13.9639 26.8212 13.8312 29.7305C13.6981 32.6459 13.6667 33.5767 13.6667 41C13.6667 48.4233 13.6981 49.3541 13.8312 52.2695C13.9639 55.1788 14.426 57.1658 15.1017 58.9044C15.8001 60.7018 16.7347 62.2261 18.2543 63.7457C19.7739 65.2653 21.2982 66.1999 23.0956 66.8984C24.8342 67.574 26.8212 68.0361 29.7305 68.1688C32.6459 68.3019 33.5767 68.3333 41.0001 68.3333C48.4233 68.3333 49.3541 68.3019 52.2695 68.1688C55.1788 68.0361 57.1658 67.574 58.9044 66.8984C60.7018 66.1999 62.2261 65.2653 63.7458 63.7457C65.2653 62.2261 66.1999 60.7018 66.8984 58.9044C67.5741 57.1658 68.0362 55.1788 68.1689 52.2695C68.3019 49.3541 68.3333 48.4233 68.3333 41C68.3333 33.5767 68.3019 32.6459 68.1689 29.7305C68.0362 26.8212 67.5741 24.8342 66.8984 23.0956C66.1999 21.2982 65.2653 19.7739 63.7458 18.2542C62.2261 16.7347 60.7018 15.8001 58.9044 15.1017C57.1658 14.4259 55.1788 13.9638 52.2695 13.8311C49.3541 13.6981 48.4233 13.6667 41.0001 13.6667ZM41.0001 18.5916C48.2983 18.5916 49.1628 18.6195 52.045 18.751C54.71 18.8725 56.1573 19.3178 57.1204 19.6921C58.3963 20.1879 59.3068 20.7802 60.2632 21.7368C61.2198 22.6932 61.8121 23.6037 62.3079 24.8796C62.6822 25.8427 63.1275 27.29 63.249 29.955C63.3805 32.8372 63.4084 33.7017 63.4084 41C63.4084 48.2983 63.3805 49.1628 63.249 52.045C63.1275 54.71 62.6822 56.1573 62.3079 57.1204C61.8121 58.3963 61.2198 59.3068 60.2632 60.2632C59.3068 61.2197 58.3963 61.812 57.1204 62.3079C56.1573 62.6822 54.71 63.1275 52.045 63.249C49.1633 63.3805 48.2988 63.4084 41.0001 63.4084C33.7012 63.4084 32.8369 63.3805 29.955 63.249C27.29 63.1275 25.8427 62.6822 24.8796 62.3079C23.6037 61.812 22.6932 61.2197 21.7368 60.2632C20.7804 59.3068 20.1879 58.3963 19.6921 57.1204C19.3178 56.1573 18.8725 54.71 18.751 52.045C18.6195 49.1628 18.5916 48.2983 18.5916 41C18.5916 33.7017 18.6195 32.8372 18.751 29.955C18.8725 27.29 19.3178 25.8427 19.6921 24.8796C20.1879 23.6037 20.7802 22.6932 21.7368 21.7368C22.6932 20.7802 23.6037 20.1879 24.8796 19.6921C25.8427 19.3178 27.29 18.8725 29.955 18.751C32.8372 18.6195 33.7017 18.5916 41.0001 18.5916Z" fill="url(#paint0_linear_304_125)"/>
<path fill-rule="evenodd" clip-rule="evenodd" d="M41.0001 50.1111C35.968 50.1111 31.8889 46.0319 31.8889 41C31.8889 35.968 35.968 31.8889 41.0001 31.8889C46.0319 31.8889 50.1111 35.968 50.1111 41C50.1111 46.0319 46.0319 50.1111 41.0001 50.1111ZM41.0001 26.964C33.2481 26.964 26.964 33.2481 26.964 41C26.964 48.7519 33.2481 55.036 41.0001 55.036C48.7519 55.036 55.036 48.7519 55.036 41C55.036 33.2481 48.7519 26.964 41.0001 26.964Z" fill="url(#paint1_linear_304_125)"/>
<path fill-rule="evenodd" clip-rule="evenodd" d="M58.8706 26.4094C58.8706 28.2209 57.4021 29.6894 55.5906 29.6894C53.7792 29.6894 52.3106 28.2209 52.3106 26.4094C52.3106 24.5979 53.7792 23.1294 55.5906 23.1294C57.4021 23.1294 58.8706 24.5979 58.8706 26.4094Z" fill="url(#paint2_linear_304_125)"/>
<defs>
<linearGradient id="paint0_linear_304_125" x1="41" y1="95.6667" x2="95.6667" y2="41" gradientUnits="userSpaceOnUse">
<stop stop-color="#FFD522"/>
<stop offset="0.497382" stop-color="#F1000B"/>
<stop offset="1" stop-color="#B900B3"/>
</linearGradient>
<linearGradient id="paint1_linear_304_125" x1="41" y1="69.072" x2="69.0721" y2="41" gradientUnits="userSpaceOnUse">
<stop stop-color="#FFD522"/>
<stop offset="0.497382" stop-color="#F1000B"/>
<stop offset="1" stop-color="#B900B3"/>
</linearGradient>
<linearGradient id="paint2_linear_304_125" x1="55.5906" y1="32.9694" x2="62.1506" y2="26.4094" gradientUnits="userSpaceOnUse">
<stop stop-color="#FFD522"/>
<stop offset="0.497382" stop-color="#F1000B"/>
<stop offset="1" stop-color="#B900B3"/>
</linearGradient>
</defs>
</svg>
