<svg width="92" height="92" viewBox="0 0 92 92" fill="none" xmlns="http://www.w3.org/2000/svg">
<path d="M45.9042 23C33.0034 23 23 32.4537 23 45.2171C23 51.8936 25.737 57.6655 30.1919 61.6508C30.5641 61.9829 30.7931 62.4525 30.8046 62.9563L30.9306 67.0333C30.9397 67.3333 31.0225 67.6264 31.1714 67.8869C31.3204 68.1474 31.5311 68.3674 31.785 68.5274C32.0389 68.6874 32.3282 68.7826 32.6275 68.8047C32.9268 68.8267 33.227 68.7749 33.5016 68.6538L38.048 66.6496C38.4317 66.4779 38.8669 66.4492 39.2734 66.558C41.3634 67.1306 43.5851 67.4398 45.9042 67.4398C58.805 67.4398 68.8084 57.9861 68.8084 45.2228C68.8084 32.4594 58.805 23 45.9042 23Z" fill="url(#paint0_radial_1727_5888)"/>
<path d="M32.1502 51.7161L38.8783 41.0428C39.1314 40.6409 39.4651 40.2959 39.8583 40.0295C40.2514 39.7631 40.6955 39.5812 41.1626 39.4951C41.6296 39.409 42.1094 39.4206 42.5717 39.5293C43.034 39.638 43.4688 39.8414 43.8485 40.1266L49.2024 44.1406C49.4414 44.3195 49.7322 44.4157 50.0308 44.4147C50.3293 44.4137 50.6194 44.3154 50.8572 44.1348L58.0835 38.6493C59.0455 37.9163 60.3052 39.073 59.6639 40.098L52.93 50.7656C52.6769 51.1674 52.3433 51.5124 51.9501 51.7788C51.5569 52.0452 51.1128 52.2272 50.6458 52.3133C50.1787 52.3994 49.6989 52.3877 49.2366 52.279C48.7743 52.1703 48.3396 51.967 47.9598 51.6818L42.606 47.6678C42.367 47.4889 42.0762 47.3926 41.7776 47.3937C41.479 47.3947 41.1889 47.4929 40.9512 47.6735L33.7249 53.1591C32.7629 53.892 31.5032 52.7411 32.1502 51.7161Z" fill="white"/>
<defs>
<radialGradient id="paint0_radial_1727_5888" cx="0" cy="0" r="1" gradientUnits="userSpaceOnUse" gradientTransform="translate(30.6729 68.8084) scale(50.3892 50.3892)">
<stop stop-color="#0099FF"/>
<stop offset="0.6" stop-color="#A033FF"/>
<stop offset="0.9" stop-color="#FF5280"/>
<stop offset="1" stop-color="#FF7061"/>
</radialGradient>
</defs>
</svg>
