<svg width="92" height="92" viewBox="0 0 92 92" fill="none" xmlns="http://www.w3.org/2000/svg">
<path d="M50.2291 35.55C50.2291 39.4089 48.6894 43.1097 45.9486 45.8384C43.2079 48.5671 39.4906 50.1 35.6146 50.1C31.7385 50.1 28.0213 48.5671 25.2805 45.8384C22.5397 43.1097 21 39.4089 21 35.55C21 31.6911 22.5397 27.9902 25.2805 25.2616C28.0213 22.5329 31.7385 21 35.6146 21C39.4906 21 43.2079 22.5329 45.9486 25.2616C48.6894 27.9902 50.2291 31.6911 50.2291 35.55Z" fill="url(#paint0_linear_1727_5897)"/>
<path d="M70.5985 56.4446C70.5985 58.356 70.2204 60.2487 69.4857 62.0146C68.751 63.7805 67.6741 65.385 66.3166 66.7366C64.959 68.0881 63.3474 69.1603 61.5736 69.8917C59.7999 70.6232 57.8988 70.9996 55.979 70.9996C52.1016 70.9996 48.3831 69.4662 45.6413 66.7366C42.8996 64.007 41.3594 60.3049 41.3594 56.4446C41.3594 52.5844 42.8996 48.8823 45.6413 46.1527C48.3831 43.4231 52.1016 41.8896 55.979 41.8896C57.8988 41.8896 59.7999 42.2661 61.5736 42.9976C63.3474 43.729 64.959 44.8012 66.3166 46.1527C67.6741 47.5043 68.751 49.1088 69.4857 50.8747C70.2204 52.6406 70.5985 54.5333 70.5985 56.4446Z" fill="url(#paint1_linear_1727_5897)"/>
<path opacity="0.05" fill-rule="evenodd" clip-rule="evenodd" d="M21.0547 36.7947C21.2817 39.5438 22.2839 42.1724 23.9452 44.3759C25.6065 46.5793 27.8588 48.2675 30.4412 49.2448C33.0236 50.222 35.8304 50.4483 38.5363 49.8974C41.2422 49.3466 43.7365 48.0411 45.73 46.1323C47.7236 44.2235 49.1349 41.7895 49.8004 39.1123C50.4659 36.4352 50.3583 33.6245 49.4901 31.0059C48.622 28.3873 47.0287 26.068 44.8951 24.3168C42.7614 22.5656 40.1747 21.4542 37.4346 21.1113C33.714 22.3545 30.3155 24.4057 27.4833 27.1175C24.6511 29.8293 22.4556 33.1342 21.0547 36.7947Z" fill="black"/>
<path opacity="0.05" fill-rule="evenodd" clip-rule="evenodd" d="M70.5571 55.4003C70.3662 52.6177 69.3815 49.9479 67.7194 47.7068C66.0572 45.4656 63.7873 43.7468 61.178 42.7537C58.5688 41.7607 55.7293 41.5349 52.9956 42.103C50.2619 42.6712 47.7483 44.0096 45.7521 45.9598C43.756 47.9101 42.3607 50.3906 41.7315 53.108C41.1022 55.8254 41.2653 58.666 42.2014 61.2937C43.1375 63.9214 44.8074 66.2264 47.0137 67.9359C49.22 69.6455 51.8703 70.6881 54.6511 70.9403C58.27 69.6532 61.5662 67.5971 64.3123 64.9139C67.0584 62.2307 69.189 58.9843 70.5571 55.3987V55.4003Z" fill="black"/>
<path opacity="0.1" fill-rule="evenodd" clip-rule="evenodd" d="M21.7383 40.1218C22.5059 42.4674 23.8566 44.5803 25.6639 46.2627C27.4713 47.9452 29.6763 49.1423 32.0728 49.7421C34.4692 50.3419 36.9788 50.3247 39.3669 49.6923C41.7549 49.0599 43.9433 47.8328 45.7275 46.1258C47.5117 44.4188 48.8333 42.2877 49.5688 39.9318C50.3042 37.5759 50.4295 35.0721 49.9329 32.6547C49.4362 30.2373 48.3339 27.9852 46.729 26.109C45.1241 24.2328 43.0691 22.7939 40.7561 21.9268C36.198 22.8753 31.9983 25.084 28.6359 28.3009C25.2734 31.5179 22.8834 35.6138 21.7383 40.1218Z" fill="black"/>
<path opacity="0.1" fill-rule="evenodd" clip-rule="evenodd" d="M69.8928 51.9797C69.1365 49.6063 67.7847 47.4657 65.9661 45.7616C64.1476 44.0575 61.9227 42.8466 59.5032 42.2441C57.0838 41.6415 54.5502 41.6675 52.1436 42.3194C49.7371 42.9713 47.5375 44.2275 45.7543 45.9685C43.9711 47.7095 42.6635 49.8773 41.956 52.2657C41.2485 54.6541 41.1646 57.1835 41.7124 59.6135C42.2601 62.0434 43.4212 64.2929 45.0851 66.1479C46.7491 68.0029 48.8606 69.4018 51.2187 70.2113C55.7185 69.2026 59.8484 66.963 63.1464 63.7431C66.4444 60.5233 68.7804 56.4502 69.8928 51.9797Z" fill="black"/>
<path opacity="0.1" fill-rule="evenodd" clip-rule="evenodd" d="M22.2734 41.5019C23.2243 43.6421 24.677 45.5223 26.5087 46.9835C28.3404 48.4447 30.4973 49.444 32.7972 49.8969C35.0971 50.3499 37.4723 50.2432 39.7222 49.5859C41.9721 48.9286 44.0305 47.74 45.7235 46.1205C47.4166 44.501 48.6945 42.4982 49.4492 40.2814C50.204 38.0645 50.4135 35.6988 50.06 33.384C49.7064 31.0693 48.8003 28.8735 47.4181 26.9824C46.0359 25.0912 44.2183 23.5601 42.1188 22.5186C37.2635 23.2735 32.757 25.4986 29.2081 28.8934C25.6591 32.2882 23.2386 36.6891 22.2734 41.5019Z" fill="black"/>
<path opacity="0.1" fill-rule="evenodd" clip-rule="evenodd" d="M69.3548 50.572C68.4087 48.407 66.9507 46.5037 65.1058 45.0257C63.261 43.5477 61.0845 42.5391 58.7634 42.0866C56.4423 41.6341 54.0459 41.7513 51.7801 42.428C49.5143 43.1046 47.4468 44.3207 45.7552 45.9715C44.0636 47.6224 42.7986 49.6588 42.0687 51.9058C41.3388 54.1527 41.1659 56.5431 41.5648 58.8715C41.9638 61.2 42.9227 63.3969 44.3591 65.2735C45.7955 67.1501 47.6665 68.6504 49.8114 69.6454C54.6242 68.8285 59.0732 66.5652 62.565 63.1574C66.0568 59.7495 68.4254 55.3592 69.3548 50.572Z" fill="black"/>
<path d="M68.9471 46.1085C68.9471 49.1348 68.3484 52.1315 67.1851 54.9274C66.0219 57.7234 64.3168 60.2638 62.1674 62.4038C60.018 64.5437 57.4662 66.2412 54.6579 67.3993C51.8495 68.5574 48.8395 69.1535 45.7997 69.1535C42.76 69.1535 39.75 68.5574 36.9416 67.3993C34.1332 66.2412 31.5815 64.5437 29.4321 62.4038C27.2826 60.2638 25.5776 57.7234 24.4143 54.9274C23.2511 52.1315 22.6523 49.1348 22.6523 46.1085C22.6523 43.0822 23.2511 40.0855 24.4143 37.2895C25.5776 34.4936 27.2826 31.9531 29.4321 29.8132C31.5815 27.6733 34.1332 25.9758 36.9416 24.8177C39.75 23.6596 42.76 23.0635 45.7997 23.0635C48.8395 23.0635 51.8495 23.6596 54.6579 24.8177C57.4662 25.9758 60.018 27.6733 62.1674 29.8132C64.3168 31.9531 66.0219 34.4936 67.1851 37.2895C68.3484 40.0855 68.9471 43.0822 68.9471 46.1085Z" fill="url(#paint2_linear_1727_5897)"/>
<path fill-rule="evenodd" clip-rule="evenodd" d="M39.2911 45.3079C38.3557 44.6929 37.5751 43.8704 37.0102 42.9045C36.4649 41.8841 36.1957 40.7391 36.2294 39.5829C36.188 38.1155 36.6894 36.6844 37.6376 35.5629C38.623 34.4367 39.8896 33.5913 41.3083 33.1129C42.8514 32.5684 44.4772 32.2949 46.1137 32.3045C47.1844 32.2944 48.254 32.3764 49.3106 32.5495C50.0669 32.6662 50.8097 32.8577 51.528 33.1212C52.1877 33.3442 52.7832 33.724 53.2633 34.2279C53.6171 34.6424 53.8075 35.1715 53.7989 35.7162C53.8115 35.9992 53.7682 36.2818 53.6714 36.5481C53.5747 36.8143 53.4263 37.0589 53.2349 37.2679C53.0538 37.4604 52.834 37.6126 52.5898 37.7143C52.3457 37.8159 52.0828 37.8649 51.8184 37.8579C51.4545 37.8549 51.0956 37.7742 50.7655 37.6212C49.9521 37.2575 49.1141 36.9512 48.2577 36.7045C47.4695 36.4969 46.6569 36.396 45.8417 36.4045C44.7793 36.3655 43.7282 36.634 42.815 37.1779C42.4297 37.4118 42.1143 37.7447 41.9018 38.142C41.6893 38.5392 41.5875 38.9862 41.607 39.4362C41.6014 40.027 41.8264 40.5967 42.2344 41.0245C42.7191 41.5271 43.292 41.9367 43.9246 42.2329C44.6332 42.584 45.6899 43.0495 47.0948 43.6295C47.2504 43.6788 47.4021 43.7395 47.5486 43.8112C48.9196 44.3529 50.234 45.0278 51.473 45.8262C52.4515 46.4635 53.2766 47.3093 53.889 48.3029C54.492 49.3472 54.7941 50.5377 54.7616 51.7429C54.8122 53.2184 54.3889 54.6715 53.5536 55.8895C52.703 57.0428 51.5262 57.9152 50.1749 58.3945C48.5462 58.9758 46.8251 59.2559 45.0959 59.2212C42.7197 59.3043 40.3548 58.8573 38.1732 57.9129C37.6155 57.6648 37.1265 57.285 36.7483 56.8062C36.4343 56.3675 36.2715 55.8387 36.2844 55.2995C36.2688 55.0152 36.3152 54.7308 36.4204 54.4661C36.5255 54.2013 36.6869 53.9626 36.8934 53.7662C37.3264 53.3875 37.8885 53.1894 38.4635 53.2129C39.1042 53.2216 39.7335 53.3833 40.2989 53.6845C41.0019 54.0357 41.5564 54.299 41.9624 54.4745C42.4261 54.6685 42.9064 54.8202 43.3973 54.9279C44.0028 55.0605 44.6213 55.1243 45.2411 55.1179C46.3371 55.1961 47.4278 54.9056 48.3395 54.2929C48.6808 54.0261 48.9535 53.682 49.1352 53.289C49.3168 52.896 49.4021 52.4654 49.384 52.0329C49.385 51.4196 49.151 50.8292 48.7299 50.3829C48.1735 49.8091 47.5221 49.3355 46.8045 48.9829C45.9557 48.5362 44.7622 47.9918 43.2238 47.3495C41.8479 46.8019 40.5305 46.1179 39.2911 45.3079Z" fill="white"/>
<defs>
<linearGradient id="paint0_linear_1727_5897" x1="33.3354" y1="21.1767" x2="37.8839" y2="49.9249" gradientUnits="userSpaceOnUse">
<stop offset="0.012" stop-color="#00B7F0"/>
<stop offset="0.339" stop-color="#009DE5"/>
<stop offset="0.755" stop-color="#0082D9"/>
<stop offset="1" stop-color="#0078D4"/>
</linearGradient>
<linearGradient id="paint1_linear_1727_5897" x1="43.3249" y1="63.7413" x2="68.6173" y2="49.1236" gradientUnits="userSpaceOnUse">
<stop stop-color="#0078D4"/>
<stop offset="0.37" stop-color="#007AD5"/>
<stop offset="0.573" stop-color="#0082D9"/>
<stop offset="0.735" stop-color="#0090DF"/>
<stop offset="0.875" stop-color="#00A3E7"/>
<stop offset="1" stop-color="#00BCF2"/>
</linearGradient>
<linearGradient id="paint2_linear_1727_5897" x1="36.7664" y1="30.4818" x2="59.8219" y2="70.459" gradientUnits="userSpaceOnUse">
<stop stop-color="#00B7F0"/>
<stop offset="1" stop-color="#007CC1"/>
</linearGradient>
</defs>
</svg>
