<svg width="82" height="87" viewBox="0 0 82 87" fill="none" xmlns="http://www.w3.org/2000/svg">
<path d="M41 87C63.6436 87 82 67.5243 82 43.5C82 19.4757 63.6436 0 41 0C18.3564 0 0 19.4757 0 43.5C0 67.5243 18.3564 87 41 87Z" fill="url(#paint0_linear_304_117)"/>
<path d="M15.2695 45.6279C20.0623 42.8268 25.4125 40.4891 30.4114 38.1394C39.0115 34.2907 47.6458 30.5087 56.3671 26.9878C58.064 26.3878 61.1129 25.8011 61.4118 28.4691C61.2482 32.2457 60.5748 36.0001 60.1128 39.7545C58.9404 48.0108 57.5854 56.2388 56.264 64.4679C55.8087 67.209 52.5722 68.628 50.5014 66.8738C45.5247 63.3072 40.5097 59.7754 35.5965 56.1261C33.9871 54.391 35.4795 51.8993 36.9169 50.6603C41.0159 46.3745 45.3629 42.7331 49.2477 38.2258C50.2955 35.541 47.1994 37.8037 46.1781 38.497C40.5666 42.5997 35.0924 46.953 29.1761 50.5588C26.1541 52.3238 22.6318 50.8154 19.6112 49.8305C16.9027 48.6408 12.9339 47.4422 15.2692 45.6281L15.2695 45.6279Z" fill="white"/>
<defs>
<linearGradient id="paint0_linear_304_117" x1="30.7548" y1="3.6279" x2="8.11999" y2="53.4042" gradientUnits="userSpaceOnUse">
<stop stop-color="#37AEE2"/>
<stop offset="1" stop-color="#1E96C8"/>
</linearGradient>
</defs>
</svg>
