<svg width="92" height="92" viewBox="0 0 92 92" fill="none" xmlns="http://www.w3.org/2000/svg">
<rect width="91.5618" height="91.5618" rx="45.7809" fill="#754A91"/>
<path d="M35.0952 64.4983C35.0952 63.7308 35.0952 62.9633 35.0952 62.1957C35.1006 62.1644 35.0995 62.1322 35.0919 62.1013C35.0843 62.0703 35.0704 62.0413 35.051 62.0159C35.0316 61.9905 35.0072 61.9693 34.9792 61.9537C34.9513 61.938 34.9203 61.9282 34.8884 61.9249C32.9685 61.3844 31.1965 60.4217 29.7044 59.1083C28.6172 58.1284 27.712 56.9671 27.03 55.6771C26.0687 53.8138 25.429 51.8042 25.1373 49.7315C24.7759 47.1317 24.6503 44.5049 24.7622 41.8828C24.7868 40.6604 24.8498 39.4518 24.9901 38.2293C25.2136 35.9063 25.8051 33.6327 26.7426 31.4919C27.9002 28.8598 30.0004 26.7456 32.6381 25.5568C34.4349 24.7421 36.3252 24.1473 38.2673 23.7856C40.1717 23.4282 42.0999 23.2088 44.0366 23.1292C45.7823 23.068 47.53 23.0935 49.2732 23.2056C51.768 23.31 54.2403 23.7194 56.6338 24.4246C58.4084 24.9315 60.0966 25.6982 61.6426 26.6993C63.1489 27.7239 64.3671 29.1115 65.1827 30.7314C66.1415 32.6234 66.7933 34.6533 67.114 36.7464C67.3223 37.9891 67.4593 39.2425 67.5241 40.5006C67.6152 42.0599 67.6047 43.6262 67.5451 45.1786C67.4855 46.731 67.3523 48.2382 67.1596 49.7593C66.9159 52.0424 66.2076 54.2528 65.0775 56.2571C63.6066 58.7926 61.2503 60.7072 58.453 61.6401C56.5402 62.3038 54.5652 62.7761 52.5574 63.0501C51.0888 63.2515 49.6167 63.3974 48.1375 63.4564C47.0054 63.5085 45.8733 63.4946 44.7411 63.4772C44.0997 63.4772 43.4618 63.4147 42.8238 63.3592C42.7612 63.3475 42.6965 63.3544 42.6379 63.3791C42.5792 63.4039 42.5293 63.4453 42.4944 63.4981C41.2045 65.0331 39.8656 66.5264 38.5161 68.0128C38.2703 68.284 37.9857 68.518 37.6714 68.7074C37.4651 68.8415 37.2298 68.9257 36.9846 68.9531C36.7394 68.9805 36.4911 68.9504 36.2598 68.8653C36.0285 68.7801 35.8207 68.6422 35.6531 68.4628C35.4855 68.2833 35.3628 68.0673 35.295 67.8322C35.1614 67.4145 35.0951 66.9785 35.0987 66.5403C35.0952 65.8527 35.0952 65.1755 35.0952 64.4983ZM36.6549 67.412L36.8197 67.2592L39.7464 64.0399C40.8727 62.8012 41.9978 61.5614 43.1218 60.3204C43.177 60.2447 43.2516 60.1849 43.3378 60.147C43.424 60.1092 43.5188 60.0947 43.6125 60.1051C43.9945 60.1433 44.3766 60.1572 44.7622 60.1606C46.0941 60.1606 47.426 60.1606 48.7579 60.0669C49.9672 59.9731 51.1729 59.8272 52.3717 59.6397C53.6623 59.4171 54.94 59.1261 56.1992 58.768C59.0033 58.0213 61.1729 56.4238 62.5364 53.8365C63.3413 52.2458 63.8462 50.5227 64.026 48.7522C64.2391 47.0834 64.3666 45.405 64.4081 43.7234C64.4702 41.611 64.3246 39.4977 63.9734 37.4132C63.73 35.903 63.2917 34.43 62.6696 33.0304C61.8774 31.294 60.7558 29.8562 59.0278 28.9324C56.378 27.5155 53.5108 26.8834 50.556 26.5604C49.7183 26.4701 48.8806 26.4215 48.0394 26.3903C46.3169 26.3023 44.5908 26.3115 42.8694 26.418C41.6314 26.5091 40.4001 26.6738 39.1821 26.9112C37.3908 27.2347 35.658 27.8199 34.0401 28.6476C33.1022 29.1172 32.2513 29.7407 31.5235 30.4917C30.3439 31.798 29.4787 33.3523 28.9928 35.0378C28.4165 37.0006 28.1019 39.0298 28.057 41.0736C27.9442 43.1174 27.97 45.1664 28.1341 47.2068C28.2362 48.421 28.4414 49.6246 28.7475 50.8047C29.2029 52.6437 30.0864 54.3516 31.3272 55.7917C32.6669 57.261 34.3983 58.3253 36.3219 58.8618C36.5638 58.9347 36.6725 59.0181 36.6725 59.2889C36.6514 60.2891 36.6725 61.2893 36.6725 62.2895L36.6549 67.412Z" fill="white"/>
<path d="M34.2021 36.3926C34.1776 35.632 34.5947 35.0798 35.0994 34.5832C35.7651 33.9513 36.4985 33.3935 37.2866 32.9197C37.6459 32.7001 38.0732 32.6164 38.4899 32.684C38.9065 32.7517 39.2845 32.9661 39.5544 33.2878C40.5079 34.2809 41.3613 35.3638 42.1025 36.5211C42.4696 37.0416 42.7468 37.6191 42.9227 38.2297C42.993 38.468 42.9976 38.7206 42.936 38.9613C42.8743 39.2019 42.7487 39.4218 42.5722 39.598C42.1679 39.9913 41.7369 40.3568 41.2824 40.692C41.0533 40.8728 40.883 41.1164 40.7927 41.3925C40.7023 41.6685 40.6958 41.9647 40.7741 42.2444C41.0548 43.5574 41.691 44.7699 42.6143 45.752C43.7362 47.1091 45.1818 48.1678 46.8204 48.8324C47.223 49.0376 47.6843 49.1001 48.1278 49.0096C48.3706 48.9439 48.5864 48.8042 48.7447 48.6102C48.99 48.3011 49.2564 48.0024 49.4772 47.6725C49.7636 47.261 50.2009 46.9765 50.6959 46.8799C51.1909 46.7832 51.7045 46.8819 52.127 47.155C53.3152 47.8381 54.4369 48.6286 55.4779 49.5166C55.7232 49.725 55.9791 49.9264 56.2245 50.1383C56.5148 50.3576 56.7244 50.6653 56.8213 51.0141C56.9182 51.3629 56.8969 51.7335 56.7607 52.0692C56.5442 52.6336 56.2285 53.1557 55.8284 53.6111C55.3311 54.2959 54.6978 54.8727 53.9672 55.3059C53.618 55.5091 53.2256 55.6285 52.8214 55.6544C52.4173 55.6803 52.0126 55.6121 51.6398 55.4552C48.804 54.324 46.1542 52.7801 43.778 50.8745C41.4538 48.9787 39.4226 46.7556 37.7492 44.276C36.3412 42.2233 35.2211 39.9907 34.4194 37.6393C34.3341 37.3549 34.2639 37.0663 34.2091 36.7746C34.1935 36.6478 34.1912 36.5198 34.2021 36.3926V36.3926Z" fill="white"/>
<path d="M46.3033 32.6973C48.676 32.7407 50.958 33.6079 52.7515 35.1476C54.545 36.6873 55.7362 38.8018 56.1175 41.1225C56.271 41.9663 56.3531 42.8213 56.3629 43.6786C56.3629 43.88 56.3103 44.0258 56.093 44.0467C55.8757 44.0675 55.8196 43.8835 55.8196 43.6994C55.8522 41.9653 55.4929 40.2459 54.7681 38.6672C54.1577 37.3699 53.2535 36.2297 52.1258 35.3352C50.9981 34.4408 49.6773 33.8161 48.2662 33.5099C47.5201 33.3388 46.7572 33.2503 45.9914 33.246C45.9168 33.2473 45.8424 33.2379 45.7706 33.2182C45.7094 33.2011 45.6573 33.1611 45.6252 33.1067C45.5932 33.0523 45.5837 32.9877 45.5988 32.9265C45.5993 32.8975 45.6055 32.8688 45.6173 32.8422C45.629 32.8156 45.646 32.7916 45.6672 32.7715C45.6884 32.7515 45.7134 32.7358 45.7408 32.7255C45.7682 32.7151 45.7974 32.7102 45.8266 32.7112C45.9844 32.6903 46.1456 32.6973 46.3033 32.6973Z" fill="white"/>
<path d="M53.0695 42.1157C53.0577 41.1508 52.8179 40.2022 52.3693 39.3458C51.9207 38.4894 51.2758 37.749 50.4863 37.1842C49.5648 36.5428 48.4936 36.1448 47.3738 36.0277C47.1845 36.0034 46.9952 35.993 46.8024 35.9721C46.6097 35.9513 46.494 35.8714 46.5115 35.6769C46.529 35.4825 46.6517 35.413 46.862 35.4269C49.9675 35.6144 52.6103 37.3543 53.4235 40.5945C53.5722 41.2193 53.6464 41.8592 53.6443 42.5012C53.6443 42.5602 53.6443 42.6192 53.6443 42.6748C53.6443 42.8484 53.5322 42.9631 53.3604 42.9596C53.3223 42.9583 53.2849 42.9494 53.2504 42.9333C53.2159 42.9172 53.1851 42.8943 53.1599 42.866C53.1346 42.8378 53.1154 42.8047 53.1035 42.7688C53.0916 42.733 53.0872 42.6951 53.0905 42.6574C53.0625 42.4942 53.0695 42.3275 53.0695 42.1157Z" fill="white"/>
<path d="M47.6285 38.2467C49.332 38.3613 50.5202 39.1879 50.8462 40.9834C50.8857 41.2134 50.9138 41.4452 50.9303 41.6779C50.9303 41.8655 50.8882 42.0252 50.6815 42.0252C50.4747 42.0252 50.4046 41.8863 50.3975 41.6779C50.3956 40.9897 50.1816 40.3184 49.7842 39.754C49.3665 39.2427 48.7668 38.9096 48.1087 38.8232C47.9616 38.796 47.813 38.7774 47.6636 38.7677C47.4182 38.7677 47.2815 38.6461 47.3131 38.4586C47.3446 38.271 47.4918 38.2363 47.6285 38.2467Z" fill="white"/>
</svg>
