<svg width="92" height="92" viewBox="0 0 92 92" fill="none" xmlns="http://www.w3.org/2000/svg">
<path d="M68.4458 36.2988C68.2474 40.4006 65.2163 46.0174 59.354 53.1461C53.2927 60.5928 48.1646 64.3158 43.9695 64.3158C41.3718 64.3158 39.1717 62.0489 37.376 57.5134C36.1759 53.356 34.9771 49.1991 33.7774 45.0417C32.4431 40.5087 31.0125 38.2393 29.483 38.2393C29.1495 38.2393 27.9824 38.9026 25.9843 40.224L23.8867 37.6698C26.0868 35.8424 28.2574 34.0155 30.3929 32.186C33.3272 29.7891 35.5299 28.5287 36.998 28.4012C40.4677 28.0862 42.6031 30.3279 43.4047 35.1266C44.2709 40.3039 44.8701 43.5242 45.2071 44.7847C46.207 49.08 47.3073 51.225 48.5097 51.225C49.4427 51.225 50.8444 49.832 52.7132 47.0461C54.5802 44.2594 55.5802 42.1393 55.7153 40.6828C55.981 38.278 54.9806 37.0726 52.7132 37.0726C51.6459 37.0726 50.5457 37.3048 49.4138 37.7636C51.6045 30.9802 55.7906 27.6858 61.9695 27.8738C66.5502 28.0008 68.7097 30.809 68.4458 36.2988Z" fill="#32B8E8"/>
</svg>
