<svg width="92" height="92" viewBox="0 0 92 92" fill="none" xmlns="http://www.w3.org/2000/svg">
<path fill-rule="evenodd" clip-rule="evenodd" d="M72.1482 31.9543C72.5332 30.745 72.1482 29.8564 70.3154 29.8564H64.2551C62.7142 29.8564 62.0038 30.6241 61.6185 31.4705C61.6185 31.4705 58.5366 38.5449 54.1707 43.1401C52.7582 44.4703 52.1161 44.8935 51.3456 44.8935C50.9605 44.8935 50.4028 44.4703 50.4028 43.2611V31.9544C50.4028 30.5032 49.9556 29.8564 48.6714 29.8564H39.148C38.1851 29.8564 37.6059 30.53 37.6059 31.1683C37.6059 32.544 39.7888 32.8612 40.0138 36.731V45.1355C40.0138 46.9781 39.6604 47.3122 38.89 47.3122C36.8355 47.3122 31.8379 40.2063 28.8739 32.0752C28.2931 30.4948 27.7105 29.8564 26.1616 29.8564H20.1013C18.3698 29.8564 18.0234 30.6241 18.0234 31.4705C18.0234 32.9822 20.078 40.4798 27.5899 50.3958C32.5978 57.1677 39.6536 60.8386 46.0741 60.8386C49.9264 60.8386 50.4029 60.0233 50.4029 58.6189V53.5007C50.4029 51.8701 50.7679 51.5446 51.9878 51.5446C52.8866 51.5446 54.4275 51.9679 58.0231 55.2329C62.1321 59.1026 62.8096 60.8386 65.1209 60.8386H71.1812C72.9127 60.8386 73.7785 60.0233 73.279 58.4143C72.7325 56.8107 70.7706 54.484 68.1674 51.726C66.7549 50.154 64.6361 48.461 63.994 47.6144C63.0952 46.5262 63.352 46.0423 63.994 45.075C63.994 45.075 71.3777 35.2798 72.1482 31.9543Z" fill="#2787F5"/>
</svg>
