<svg width="93" height="93" viewBox="0 0 93 93" fill="none" xmlns="http://www.w3.org/2000/svg">
<rect width="93" height="93" rx="46.5" fill="#00D95F"/>
<path d="M23.2502 68.0284L26.5865 55.6233C23.8958 50.7909 23.041 45.1519 24.1788 39.7411C25.3166 34.3303 28.3707 29.5105 32.7808 26.1663C37.1908 22.8221 42.6609 21.1778 48.1873 21.5351C53.7137 21.8923 58.9256 24.2272 62.8668 28.1113C66.808 31.9954 69.214 37.1681 69.6434 42.6802C70.0727 48.1924 68.4965 53.6742 65.2042 58.1198C61.9118 62.5654 57.1239 65.6766 51.7193 66.8824C46.3147 68.0883 40.6557 67.3079 35.7809 64.6845L23.2502 68.0284ZM36.3851 60.0425L37.1601 60.5014C40.691 62.5908 44.8151 63.4554 48.8896 62.9606C52.9642 62.4657 56.7603 60.6391 59.6864 57.7654C62.6126 54.8918 64.5043 51.1325 65.0669 47.0734C65.6296 43.0143 64.8314 38.8834 62.7968 35.3244C60.7623 31.7654 57.6056 28.9784 53.8188 27.3975C50.032 25.8166 45.8277 25.5307 41.8611 26.5843C37.8945 27.638 34.3885 29.972 31.8893 33.2227C29.3902 36.4733 28.0383 40.458 28.0444 44.5558C28.0411 47.9535 28.9823 51.2855 30.7634 54.1809L31.2493 54.9808L29.3842 61.9045L36.3851 60.0425Z" fill="white"/>
<path fill-rule="evenodd" clip-rule="evenodd" d="M55.1939 47.7411C54.7396 47.3753 54.2077 47.1178 53.6386 46.9883C53.0696 46.8588 52.4784 46.8606 51.9102 46.9937C51.0564 47.3477 50.5047 48.6853 49.9531 49.354C49.8367 49.5143 49.6658 49.6268 49.4723 49.6702C49.2789 49.7137 49.0762 49.6852 48.9023 49.5901C45.7766 48.3679 43.1566 46.1266 41.4679 43.2302C41.3239 43.0494 41.2557 42.82 41.2778 42.59C41.2998 42.3601 41.4104 42.1477 41.5861 41.9975C42.2014 41.3894 42.6532 40.6363 42.8996 39.8076C42.9544 38.8937 42.7446 37.9833 42.2954 37.185C41.9482 36.0659 41.2873 35.0694 40.3909 34.3132C39.9285 34.1056 39.4159 34.036 38.9148 34.1128C38.4137 34.1896 37.9456 34.4095 37.5669 34.746C36.9094 35.3123 36.3876 36.0186 36.0398 36.8129C35.692 37.6072 35.5271 38.4692 35.5572 39.3356C35.5592 39.8221 35.621 40.3065 35.7411 40.778C36.0461 41.9109 36.5151 42.9932 37.1334 43.9907C37.5795 44.7549 38.0661 45.4946 38.5914 46.2069C40.2983 48.5462 42.444 50.5325 44.9093 52.0553C46.1464 52.8292 47.4686 53.4584 48.8497 53.9305C50.2845 54.5798 51.8686 54.829 53.4338 54.6517C54.3256 54.517 55.1706 54.1654 55.8944 53.6281C56.6181 53.0907 57.1985 52.384 57.5845 51.5701C57.8112 51.0785 57.88 50.5288 57.7815 49.9966C57.5451 48.9082 56.0871 48.2656 55.1939 47.7411Z" fill="white"/>
</svg>
